<svg width="17" height="19" viewBox="0 0 17 19" fill="none" xmlns="http://www.w3.org/2000/svg">
<path d="M5.30805 16.7118C5.68881 17.1932 6.174 17.5819 6.72697 17.8484C7.27993 18.1148 7.88623 18.2522 8.50005 18.25C9.11388 18.2522 9.72017 18.1148 10.2731 17.8484C10.8261 17.5819 11.3113 17.1932 11.6921 16.7118C9.57374 16.9989 7.42637 16.9989 5.30805 16.7118ZM14.4063 6.875V7.491C14.4063 8.23038 14.6163 8.95312 15.0118 9.56825L15.9813 11.0759C16.8659 12.4531 16.1904 14.3247 14.6513 14.7596C10.6296 15.8988 6.37052 15.8988 2.3488 14.7596C0.809679 14.3247 0.134179 12.4531 1.0188 11.0759L1.9883 9.56825C2.38518 8.94819 2.59565 8.2272 2.59468 7.491V6.875C2.59468 3.49225 5.23893 0.75 8.50005 0.75C11.7612 0.75 14.4063 3.49225 14.4063 6.875Z" fill="#F8F8F8"/>
</svg>
