<svg width="18" height="26" viewBox="0 0 18 26" fill="none" xmlns="http://www.w3.org/2000/svg">
<path fill-rule="evenodd" clip-rule="evenodd" d="M0 2.71555C0 1.72862 0.8616 0.928558 1.92444 0.928558H15.3956C16.4584 0.928558 17.32 1.72862 17.32 2.71554V23.2659C17.32 24.7384 15.5096 25.579 14.2409 24.6954L8.66 20.8087L3.07911 24.6954C1.81045 25.579 0 24.7384 0 23.2659V2.71555ZM15.3956 3.25164C15.3956 2.95556 15.1371 2.71554 14.8182 2.71554L2.50178 2.71555C2.18293 2.71555 1.92444 2.95556 1.92444 3.25164V22.7297C1.92444 22.9507 2.19601 23.0768 2.38631 22.9442L7.5053 19.3792C8.1896 18.9026 9.1304 18.9026 9.8147 19.3792L14.9337 22.9442C15.124 23.0768 15.3956 22.9507 15.3956 22.7297V3.25164Z" fill="white"/>
</svg>
