<svg width="22" height="16" viewBox="0 0 22 16" fill="none" xmlns="http://www.w3.org/2000/svg">
<path d="M20.0742 0.414551H1.88831C1.54368 0.414551 1.21316 0.551456 0.969466 0.795149C0.725773 1.03884 0.588867 1.36936 0.588867 1.714V13.962C0.589821 14.3064 0.727034 14.6363 0.970521 14.8798C1.21401 15.1233 1.54397 15.2605 1.88831 15.2615H20.0742C20.2459 15.2609 20.4157 15.2264 20.574 15.16C20.7323 15.0935 20.8759 14.9965 20.9965 14.8744C21.1172 14.7523 21.2126 14.6076 21.2771 14.4485C21.3417 14.2895 21.3742 14.1192 21.3727 13.9476V1.72755C21.3741 1.55598 21.3415 1.38583 21.2769 1.22688C21.2122 1.06793 21.1169 0.923308 20.9962 0.801313C20.8756 0.679318 20.732 0.582351 20.5738 0.515979C20.4156 0.449608 20.2458 0.415141 20.0742 0.414551ZM2.68081 1.89924H19.2754C19.4275 1.90074 19.5738 1.95839 19.686 2.06113C19.7983 2.16387 19.8686 2.30446 19.8835 2.45589V3.38394H2.07356V2.44234C2.09043 2.29304 2.16164 2.15517 2.27364 2.05501C2.38563 1.95485 2.53056 1.8994 2.68081 1.89924ZM19.2799 13.7759H2.68081C2.53032 13.7768 2.38485 13.7218 2.27252 13.6217C2.16019 13.5215 2.08898 13.3833 2.07265 13.2337V7.83801H19.8881V13.2192C19.8726 13.3703 19.8022 13.5104 19.6903 13.613C19.5783 13.7156 19.4326 13.7736 19.2808 13.7759H19.2799Z" fill="#B8B8D1"/>
<path d="M12.3364 9.83862H3.2999V10.7423H12.3364V9.83862Z" fill="#B8B8D1"/>
<path d="M7.81813 11.646H3.2999V12.5496H7.81813V11.646Z" fill="#B8B8D1"/>
<path d="M17.7581 9.83862H15.9508V12.5496H17.7581V9.83862Z" fill="#B8B8D1"/>
</svg>
