<svg width="19" height="19" viewBox="0 0 19 19" fill="none" xmlns="http://www.w3.org/2000/svg">
<path d="M4.51823 0C4.27857 0 4.04873 0.0952185 3.87926 0.264685C3.70979 0.434152 3.61459 0.663985 3.61459 0.903647V2.71094H2.71094C1.99313 2.71474 1.30579 3.00158 0.798213 3.50916C0.290634 4.01674 0.00379804 4.70407 0 5.42188V15.362C0.00379804 16.0798 0.290634 16.7671 0.798213 17.2747C1.30579 17.7823 1.99313 18.0691 2.71094 18.0729H15.362C16.0798 18.0691 16.7671 17.7823 17.2747 17.2747C17.7823 16.7671 18.0691 16.0798 18.0729 15.362V5.42188C18.0691 4.70407 17.7823 4.01674 17.2747 3.50916C16.7671 3.00158 16.0798 2.71474 15.362 2.71094H14.4584V0.903647C14.4584 0.663985 14.3631 0.434152 14.1937 0.264685C14.0242 0.0952185 13.7944 0 13.5547 0C13.315 0 13.0852 0.0952185 12.9157 0.264685C12.7463 0.434152 12.6511 0.663985 12.6511 0.903647V2.71094H5.42188V0.903647C5.42188 0.663985 5.32668 0.434152 5.15721 0.264685C4.98774 0.0952185 4.7579 0 4.51823 0ZM2.71094 4.51823H15.362C15.4814 4.51539 15.6002 4.53682 15.7111 4.58122C15.8221 4.62563 15.9228 4.69209 16.0073 4.77658C16.0918 4.86106 16.1583 4.96181 16.2027 5.07273C16.2471 5.18365 16.2685 5.30244 16.2656 5.42188V7.22918H1.80729V5.42188C1.80445 5.30244 1.82588 5.18365 1.87028 5.07273C1.91468 4.96181 1.98114 4.86106 2.06563 4.77658C2.15011 4.69209 2.25087 4.62563 2.36179 4.58122C2.47271 4.53682 2.59149 4.51539 2.71094 4.51823ZM1.80729 9.03647H16.2656V15.362C16.2685 15.4814 16.2471 15.6002 16.2027 15.7112C16.1583 15.8221 16.0918 15.9228 16.0073 16.0073C15.9228 16.0918 15.8221 16.1583 15.7111 16.2027C15.6002 16.2471 15.4814 16.2685 15.362 16.2656H2.71094C2.59149 16.2685 2.47271 16.2471 2.36179 16.2027C2.25087 16.1583 2.15011 16.0918 2.06563 16.0073C1.98114 15.9228 1.91468 15.8221 1.87028 15.7112C1.82588 15.6002 1.80445 15.4814 1.80729 15.362V9.03647Z" fill="#B8B8D1"/>
</svg>
