<svg width="24" height="18" viewBox="0 0 24 18" fill="none" xmlns="http://www.w3.org/2000/svg">
<path d="M12 1.48207C9.63917 1.45296 7.32782 2.15939 5.38664 3.50332C3.44545 4.84726 1.9707 6.76207 1.16699 8.98207C1.9707 11.2021 3.44545 13.1169 5.38664 14.4608C7.32782 15.8047 9.63917 16.5112 12 16.4821C14.3608 16.5112 16.6722 15.8047 18.6133 14.4608C20.5545 13.1169 22.0293 11.2021 22.833 8.98207C22.0293 6.76207 20.5545 4.84726 18.6133 3.50332C16.6722 2.15939 14.3608 1.45296 12 1.48207Z" stroke="#B8B8D1" stroke-width="2" stroke-miterlimit="10" stroke-linecap="round" stroke-linejoin="round"/>
<path d="M11.703 12.832C14.0044 12.832 15.87 10.9664 15.87 8.66505C15.87 6.36368 14.0044 4.49805 11.703 4.49805C9.40161 4.49805 7.53598 6.36368 7.53598 8.66505C7.53598 10.9664 9.40161 12.832 11.703 12.832Z" stroke="#B8B8D1" stroke-width="2" stroke-miterlimit="10" stroke-linecap="round" stroke-linejoin="round"/>
</svg>
