<svg width="25" height="25" viewBox="0 0 25 25" fill="none" xmlns="http://www.w3.org/2000/svg">
<path d="M23.9502 12.3965C24.3025 12.0366 24.5498 11.586 24.6649 11.0942C24.7801 10.6023 24.7587 10.0879 24.6031 9.60745C24.4585 9.12888 24.1826 8.70114 23.8072 8.37341C23.4319 8.04568 22.9723 7.83126 22.4813 7.75482L17.6498 7.03558C17.5657 7.02391 17.4858 6.99132 17.4173 6.94075C17.3489 6.89018 17.294 6.82324 17.2577 6.74596L15.0812 2.20271C14.8757 1.75582 14.5493 1.37631 14.1394 1.1077C13.7295 0.839095 13.2527 0.692283 12.7637 0.684108C12.2659 0.681866 11.7781 0.824683 11.359 1.09534C10.94 1.36599 10.6077 1.75292 10.4022 2.20947L8.22566 6.76623C8.19014 6.84409 8.13549 6.91155 8.06687 6.96223C7.99826 7.01291 7.91794 7.04513 7.83351 7.05586L3.0126 7.80792C2.52244 7.88281 2.06364 8.09688 1.69003 8.42501C1.31642 8.75315 1.04347 9.18175 0.903214 9.66055C0.74776 10.1419 0.727456 10.6571 0.844544 11.1493C0.961633 11.6415 1.21156 12.0915 1.56671 12.4496L5.14692 15.9908C5.20795 16.0507 5.25369 16.1245 5.28023 16.2061C5.30678 16.2876 5.31335 16.3744 5.29937 16.459L4.48342 21.4705C4.40341 21.9716 4.46273 22.4853 4.65481 22.9545C4.84689 23.4238 5.16423 23.8304 5.57167 24.1292C6.00877 24.4672 6.54412 24.6511 7.09522 24.6525C7.52411 24.65 7.94584 24.5416 8.32346 24.3368L12.6765 21.9619C12.751 21.9188 12.8355 21.8961 12.9214 21.8961C13.0074 21.8961 13.0919 21.9188 13.1664 21.9619L17.5194 24.3156C17.9506 24.5495 18.4395 24.6533 18.9277 24.6146C19.4159 24.5759 19.8827 24.3963 20.2722 24.0974C20.6796 23.796 20.9967 23.3875 21.1887 22.9166C21.3806 22.4457 21.4401 21.9307 21.3604 21.428L20.5224 16.4272C20.5065 16.3411 20.511 16.2525 20.5357 16.1686C20.5604 16.0847 20.6045 16.0079 20.6643 15.9444L23.9502 12.3965ZM18.9883 14.393C18.679 14.7041 18.4468 15.0842 18.3107 15.5026C18.1746 15.9209 18.1384 16.3657 18.205 16.8008L19.043 21.8123C19.0635 21.9088 19.0564 22.0092 19.0224 22.1019C18.9885 22.1945 18.9291 22.2755 18.8512 22.3355C18.7701 22.3879 18.6758 22.4158 18.5794 22.4158C18.483 22.4158 18.3887 22.3879 18.3076 22.3355L13.9546 19.9818C13.5803 19.7778 13.1615 19.6709 12.7359 19.6709C12.3103 19.6709 11.8915 19.7778 11.5173 19.9818L7.16426 22.3567C7.08239 22.4118 6.98597 22.4408 6.88752 22.44C6.78908 22.4392 6.69315 22.4085 6.6122 22.3521C6.53125 22.2957 6.46902 22.2161 6.43359 22.1236C6.39815 22.0311 6.39116 21.93 6.41351 21.8335L7.32726 16.8326C7.39805 16.4001 7.36699 15.957 7.23659 15.5388C7.1062 15.1206 6.8801 14.739 6.57651 14.4249L3.05671 10.8818C2.9943 10.8078 2.95319 10.7181 2.93781 10.6223C2.92243 10.5265 2.93337 10.4283 2.96946 10.3383C2.99771 10.2421 3.05272 10.1561 3.12799 10.0904C3.20326 10.0247 3.29564 9.98206 3.39421 9.96755L8.21512 9.22708C8.63083 9.15308 9.02251 8.97861 9.35652 8.71864C9.69052 8.45868 9.95689 8.12098 10.1327 7.73455L12.3092 3.16909C12.3486 3.07917 12.4128 3.00257 12.4943 2.94843C12.5757 2.89429 12.6709 2.8649 12.7685 2.86378C12.8661 2.86266 12.9619 2.88985 13.0445 2.94211C13.1272 2.99437 13.1931 3.06948 13.2345 3.15847L15.411 7.71234C15.5953 8.10102 15.8705 8.43884 16.213 8.6968C16.5556 8.95475 16.9552 9.12513 17.3775 9.19329L22.209 9.91252C22.3055 9.92423 22.3964 9.96465 22.47 10.0286C22.5436 10.0926 22.5966 10.1772 22.6222 10.2717C22.6566 10.3671 22.6626 10.4705 22.6394 10.5693C22.6163 10.6681 22.565 10.7579 22.4918 10.8277L18.9883 14.393Z" fill="white"/>
</svg>
