<svg width="22" height="16" viewBox="0 0 22 16" fill="none" xmlns="http://www.w3.org/2000/svg">
<path d="M20.0742 0.275879H1.88831C1.54368 0.275879 1.21316 0.412785 0.969466 0.656478C0.725773 0.900171 0.588867 1.23069 0.588867 1.57533V13.8234C0.589821 14.1677 0.727034 14.4977 0.970521 14.7411C1.21401 14.9846 1.54397 15.1218 1.88831 15.1228H20.0742C20.2459 15.1222 20.4157 15.0877 20.574 15.0213C20.7323 14.9549 20.8759 14.8578 20.9965 14.7357C21.1172 14.6136 21.2126 14.4689 21.2771 14.3098C21.3417 14.1508 21.3742 13.9805 21.3727 13.8089V1.58888C21.3741 1.41731 21.3415 1.24716 21.2769 1.08821C21.2122 0.929263 21.1169 0.784636 20.9962 0.662641C20.8756 0.540646 20.732 0.443679 20.5738 0.377308C20.4156 0.310936 20.2458 0.276469 20.0742 0.275879ZM2.68081 1.76057H19.2754C19.4275 1.76206 19.5738 1.81972 19.686 1.92246C19.7983 2.0252 19.8686 2.16579 19.8835 2.31722V3.24527H2.07356V2.30367C2.09043 2.15437 2.16164 2.0165 2.27364 1.91634C2.38563 1.81618 2.53056 1.76073 2.68081 1.76057ZM19.2799 13.6372H2.68081C2.53032 13.6381 2.38485 13.5831 2.27252 13.483C2.16019 13.3829 2.08898 13.2446 2.07265 13.095V7.69934H19.8881V13.0806C19.8726 13.2316 19.8022 13.3717 19.6903 13.4743C19.5783 13.5769 19.4326 13.6349 19.2808 13.6372H19.2799Z" fill="#5B5F97"/>
<path d="M12.3364 9.69995H3.2999V10.6036H12.3364V9.69995Z" fill="#5B5F97"/>
<path d="M7.81813 11.5073H3.2999V12.411H7.81813V11.5073Z" fill="#5B5F97"/>
<path d="M17.7581 9.69995H15.9508V12.4109H17.7581V9.69995Z" fill="#5B5F97"/>
</svg>
