<svg width="32" height="16" viewBox="0 0 32 16" fill="none" xmlns="http://www.w3.org/2000/svg">
<path d="M6.13424 11.3926C6.54628 11.583 6.99337 11.6906 7.44893 11.7093V12.433C7.42485 12.491 7.42485 12.5559 7.44893 12.614C7.50846 12.6374 7.57501 12.6374 7.63454 12.614H8.29962C8.35914 12.6374 8.4257 12.6374 8.48522 12.614C8.5093 12.5559 8.5093 12.491 8.48522 12.433V11.7093C9.14095 11.6698 9.76789 11.4327 10.2794 11.0307C10.5024 10.8468 10.6786 10.6148 10.794 10.3531C10.9094 10.0915 10.9609 9.80727 10.9445 9.5229C10.9604 9.1683 10.8689 8.81697 10.6815 8.51265C10.4741 8.22766 10.1906 8.00344 9.86179 7.86428C9.36529 7.65385 8.84662 7.4971 8.31509 7.39685C8.01748 7.34224 7.72317 7.27177 7.43347 7.18576C7.23436 7.11605 7.0544 7.00253 6.90759 6.85403C6.79372 6.72399 6.73313 6.55753 6.73745 6.3866C6.72219 6.24257 6.75255 6.09744 6.82445 5.97074C6.89635 5.84404 7.00633 5.74185 7.13959 5.67792C7.42067 5.51953 7.74366 5.44606 8.06761 5.46683C8.35047 5.46417 8.62865 5.53718 8.8719 5.67792C8.97791 5.73697 9.06992 5.8172 9.14189 5.91334C9.21386 6.00949 9.26417 6.11939 9.28951 6.23582C9.31518 6.29373 9.35883 6.34234 9.41432 6.3748C9.46981 6.40726 9.53435 6.42194 9.59885 6.41676H10.6042C10.6616 6.41676 10.7167 6.39452 10.7573 6.35493C10.7979 6.31534 10.8207 6.26165 10.8207 6.20566C10.7976 5.92553 10.7018 5.65573 10.5423 5.42159C10.3473 5.13301 10.0883 4.89082 9.78445 4.71291C9.44437 4.53293 9.07118 4.4202 8.68629 4.38118V3.64235C8.69148 3.60751 8.68826 3.57197 8.67688 3.53857C8.6655 3.50516 8.64628 3.4748 8.62075 3.44991C8.59522 3.42502 8.56408 3.40628 8.52981 3.39519C8.49554 3.3841 8.45909 3.38095 8.42336 3.38601H7.69641C7.63688 3.36254 7.57033 3.36254 7.5108 3.38601C7.48672 3.44404 7.48672 3.50892 7.5108 3.56695V4.29071C6.90283 4.33577 6.32684 4.57415 5.8713 4.96924C5.6772 5.14356 5.52311 5.35593 5.41915 5.59241C5.31519 5.82888 5.26371 6.08412 5.26809 6.34137C5.25215 6.59864 5.29684 6.85605 5.39871 7.09389C5.50059 7.33173 5.65695 7.54367 5.85583 7.7135C6.4026 8.10087 7.03159 8.36366 7.69641 8.48249C8.20166 8.61317 8.58318 8.72375 8.84096 8.81422C9.05967 8.88098 9.26042 8.99428 9.42871 9.14594C9.49065 9.20744 9.53905 9.28062 9.57097 9.36099C9.60288 9.44137 9.61763 9.52724 9.61432 9.61337C9.61626 9.74575 9.58311 9.87638 9.51808 9.99261C9.45305 10.1088 9.35833 10.2067 9.24311 10.2768C8.90326 10.4596 8.51673 10.5433 8.12948 10.5181C7.76745 10.5364 7.40768 10.4526 7.09319 10.2768C6.86265 10.1434 6.68748 9.93524 6.59825 9.68876C6.56373 9.62917 6.51621 9.5777 6.45905 9.53798C6.39355 9.51823 6.32347 9.51823 6.25797 9.53798H5.23715C5.18249 9.51697 5.12168 9.51697 5.06702 9.53798C5.04797 9.58652 5.04797 9.64021 5.06702 9.68876C5.08218 10.0124 5.18927 10.3256 5.37635 10.5935C5.55529 10.9183 5.81611 11.1933 6.13424 11.3926Z" fill="#4BBC71"/>
<path d="M8 16C9.58225 16 11.129 15.5308 12.4446 14.6518C13.7602 13.7727 14.7855 12.5233 15.391 11.0615C15.9965 9.59966 16.155 7.99113 15.8463 6.43928C15.5376 4.88743 14.7757 3.46197 13.6569 2.34315C12.538 1.22433 11.1126 0.462403 9.56072 0.153721C8.00887 -0.15496 6.40034 0.00346625 4.93853 0.608967C3.47672 1.21447 2.22729 2.23985 1.34824 3.55544C0.469192 4.87103 0 6.41775 0 8C0.00379012 10.1206 0.847862 12.1532 2.34733 13.6527C3.8468 15.1521 5.87943 15.9962 8 16ZM8 1.43369C9.29463 1.43653 10.5594 1.82284 11.6347 2.54387C12.7099 3.2649 13.5475 4.28832 14.0416 5.48495C14.5357 6.68158 14.6643 7.99777 14.411 9.26739C14.1578 10.537 13.534 11.7031 12.6186 12.6186C11.7031 13.534 10.537 14.1578 9.26739 14.411C7.99777 14.6643 6.68158 14.5357 5.48495 14.0416C4.28832 13.5475 3.2649 12.7099 2.54387 11.6347C1.82284 10.5594 1.43653 9.29463 1.43369 8C1.4318 7.13717 1.60035 6.28246 1.92967 5.48495C2.25899 4.68744 2.74259 3.96282 3.3527 3.35271C3.96282 2.74259 4.68743 2.25899 5.48495 1.92968C6.28246 1.60036 7.13717 1.4318 8 1.43369Z" fill="#4BBC71"/>
<path d="M18.5796 8.74688H29.4491L27.5568 10.5931C27.4301 10.7302 27.3626 10.9085 27.3682 11.0918C27.3739 11.275 27.4521 11.4493 27.587 11.5789C27.7219 11.7085 27.9033 11.7837 28.094 11.7891C28.2847 11.7945 28.4704 11.7297 28.613 11.6079L31.7814 8.53548C31.8478 8.47036 31.9002 8.39324 31.9354 8.30858C31.9707 8.22391 31.9881 8.13338 31.9868 8.0422C32.0042 7.95373 32.0042 7.8629 31.9868 7.77443C31.9387 7.67631 31.8686 7.58966 31.7814 7.52074L28.5983 4.39196C28.4557 4.27019 28.2701 4.20537 28.0793 4.21076C27.8886 4.21615 27.7073 4.29135 27.5724 4.42097C27.4375 4.55059 27.3592 4.72484 27.3536 4.90807C27.348 5.09131 27.4154 5.26968 27.5422 5.4067L29.4784 7.26705H18.5796C18.471 7.24609 18.359 7.24854 18.2515 7.27424C18.144 7.29994 18.0438 7.34824 17.9582 7.41566C17.8725 7.48308 17.8035 7.56793 17.7561 7.66409C17.7087 7.76026 17.6841 7.86533 17.6841 7.97174C17.6841 8.07814 17.7087 8.18321 17.7561 8.27938C17.8035 8.37554 17.8725 8.46039 17.9582 8.52781C18.0438 8.59523 18.144 8.64353 18.2515 8.66923C18.359 8.69493 18.471 8.69738 18.5796 8.67642V8.74688Z" fill="#4BBC71"/>
</svg>
