<svg width="20" height="21" viewBox="0 0 20 21" fill="none" xmlns="http://www.w3.org/2000/svg">
<path d="M9.80379 0.888967L1.02509 7.91173C0.954796 7.96801 0.898105 8.03937 0.859141 8.12054C0.820176 8.20172 0.799932 8.29058 0.799988 8.38062V19.5739C0.799988 19.7331 0.863223 19.8858 0.975792 19.9983C1.08836 20.1109 1.2411 20.1741 1.40029 20.1741H6.74108C6.90028 20.1741 7.05295 20.1109 7.16552 19.9983C7.27809 19.8858 7.34132 19.7331 7.34132 19.5739V14.8167C7.34132 14.6575 7.40456 14.5048 7.51713 14.3923C7.6297 14.2797 7.78237 14.2165 7.94156 14.2165H12.4164C12.5756 14.2165 12.7282 14.2797 12.8408 14.3923C12.9534 14.5048 13.0166 14.6575 13.0166 14.8167V19.5739C13.0166 19.7331 13.0798 19.8858 13.1924 19.9983C13.305 20.1109 13.4577 20.1741 13.6169 20.1741H18.9576C19.0365 20.1741 19.1146 20.1586 19.1874 20.1285C19.2602 20.0983 19.3263 20.0541 19.3821 19.9983C19.4378 19.9426 19.482 19.8764 19.5122 19.8036C19.5424 19.7308 19.5579 19.6527 19.5579 19.5739V8.38171C19.5579 8.29166 19.5378 8.20274 19.4988 8.12156C19.4598 8.04038 19.4031 7.96902 19.3328 7.91275L10.5541 0.889984C10.4478 0.804598 10.3155 0.758002 10.1791 0.757813C10.0427 0.757624 9.91037 0.803877 9.80379 0.888967Z" fill="#FAFAFB"/>
</svg>
