<svg width="17" height="16" viewBox="0 0 17 16" fill="none" xmlns="http://www.w3.org/2000/svg">
<path d="M7.8517 11.8502H9.41859V7.14857H7.8517V11.8502ZM8.63469 0.0961916C7.085 0.0961916 5.57011 0.555728 4.28159 1.41669C2.99307 2.27765 1.98879 3.50137 1.39575 4.93309C0.802712 6.36482 0.647545 7.94025 0.949874 9.46017C1.2522 10.9801 1.99845 12.3762 3.09425 13.472C4.19004 14.5678 5.58617 15.314 7.10609 15.6164C8.626 15.9187 10.2014 15.7635 11.6332 15.1705C13.0649 14.5775 14.2886 13.5732 15.1496 12.2847C16.0105 10.9961 16.4701 9.48125 16.4701 7.93156C16.4703 6.90254 16.2678 5.88355 15.8741 4.93281C15.4804 3.98207 14.9033 3.11821 14.1757 2.39058C13.448 1.66295 12.5842 1.08581 11.6334 0.692134C10.6827 0.298455 9.66371 0.0959513 8.63469 0.0961916ZM8.63469 14.2C7.3949 14.2 6.18296 13.8324 5.15211 13.1436C4.12126 12.4548 3.31782 11.4758 2.84337 10.3304C2.36892 9.18499 2.24479 7.92461 2.48666 6.70864C2.72853 5.49268 3.32554 4.37574 4.20221 3.49908C5.07887 2.62242 6.1958 2.0254 7.41177 1.78353C8.62774 1.54166 9.88812 1.6658 11.0335 2.14024C12.1789 2.61469 13.158 3.41814 13.8467 4.44898C14.5355 5.47983 14.9032 6.69177 14.9032 7.93156C14.901 9.5934 14.2399 11.1865 13.0648 12.3616C11.8897 13.5367 10.2965 14.1979 8.63469 14.2ZM7.8517 5.58443H9.41859V4.01388H7.8517V5.58443Z" fill="#5B5F97"/>
</svg>
