<svg width="21" height="21" viewBox="0 0 21 21" fill="none" xmlns="http://www.w3.org/2000/svg">
<path d="M10.2432 0.747327C8.29136 0.748955 6.38379 1.32924 4.76166 2.41482C3.13953 3.50041 1.87568 5.04255 1.12986 6.84631C0.384037 8.65006 0.189741 10.6345 0.571529 12.5486C0.953317 14.4628 1.89405 16.2208 3.2748 17.6004C4.65556 18.98 6.41434 19.9193 8.32882 20.2994C10.2433 20.6796 12.2275 20.4837 14.0307 19.7364C15.8338 18.989 17.3749 17.7239 18.4591 16.1009C19.5434 14.4778 20.122 12.5698 20.122 10.6179C20.123 9.32073 19.8681 8.03609 19.3719 6.83756C18.8757 5.63904 18.1479 4.55016 17.2303 3.63329C16.3126 2.71643 15.2231 1.98957 14.0242 1.49435C12.8253 0.999136 11.5404 0.745281 10.2432 0.747327ZM17.0788 6.67005H14.1664C13.8554 5.44811 13.3981 4.26815 12.8044 3.15575C14.6057 3.77412 16.1233 5.02206 17.0779 6.67005H17.0788ZM10.2478 2.75968C11.0808 3.95552 11.7173 5.27688 12.133 6.67371H8.36259C8.77832 5.27688 9.41476 3.95552 10.2478 2.75968ZM2.60817 12.5919C2.26605 11.2981 2.26605 9.9377 2.60817 8.64398H5.93953C5.85493 9.29864 5.81033 9.95784 5.80598 10.6179C5.80938 11.2782 5.85551 11.9375 5.94411 12.5919H2.60817ZM3.4122 14.5658H6.32279C6.6347 15.7889 7.09195 16.9703 7.68479 18.0847C5.88274 17.4647 4.36497 16.2152 3.41037 14.5658H3.4122ZM6.32279 6.67005H3.4122C4.3668 5.02065 5.88457 3.77116 7.68662 3.15117C7.09315 4.26547 6.63528 5.44685 6.32279 6.67005ZM10.246 18.4798C9.41679 17.2817 8.78065 15.961 8.36076 14.5658H12.1312C11.7118 15.9609 11.0763 17.2816 10.2478 18.4798H10.246ZM12.5556 12.5919H7.93633C7.83609 11.9385 7.78321 11.2789 7.77809 10.6179C7.78321 9.95699 7.83609 9.29729 7.93633 8.64398H12.5556C12.6558 9.29729 12.7087 9.95699 12.7138 10.6179C12.7093 11.2788 12.6571 11.9385 12.5574 12.5919H12.5556ZM12.8071 18.0801C13.4 16.9673 13.8572 15.7875 14.1691 14.5658H17.0806C16.1234 16.2119 14.6064 17.4591 12.8062 18.0801H12.8071ZM14.5451 12.5919C14.6312 11.9373 14.6774 11.2781 14.6832 10.6179C14.6798 9.95765 14.6337 9.29829 14.5451 8.64398H17.8764C18.0465 9.2883 18.1344 9.95154 18.138 10.6179C18.1368 11.2845 18.0489 11.948 17.8764 12.5919H14.5451Z" fill="#5B5F97"/>
</svg>
