<svg width="124" height="125" viewBox="0 0 124 125" fill="none" xmlns="http://www.w3.org/2000/svg">
<path d="M53.0086 40.4281C45.4045 48.0346 35.2743 52.2241 24.4902 52.2241C22.3765 52.2241 20.2486 52.0559 18.1657 51.7289L12.571 50.8474L17.3576 33.0207L21.758 33.5728C22.6585 33.6842 23.585 33.7434 24.4949 33.7434C30.3408 33.7434 35.8217 31.4781 39.9401 27.3597C44.7339 22.5659 46.9969 15.9381 46.1533 9.17756L45.6012 4.77717L63.4207 1.14441e-05L64.2998 5.58995C66.3117 18.3267 62.0866 31.3501 53.0086 40.4281Z" fill="#65BAEA"/>
<path d="M51.7241 105.84L50.8426 111.428L33.0207 106.648L33.5681 102.248C34.4164 95.4874 32.1487 88.8619 27.3549 84.0682C23.2413 79.9498 17.7579 77.6821 11.9168 77.6821C10.9998 77.6821 10.0804 77.7413 9.17281 77.8527L4.77242 78.4001L0 60.5805L5.5852 59.7014C7.67283 59.3744 9.80076 59.2085 11.9168 59.2085C22.6986 59.2085 32.824 63.3932 40.4234 70.9974C49.5062 80.0801 53.7312 93.1036 51.7241 105.84Z" fill="#65BAEA"/>
<path d="M111.425 73.1608L106.643 90.9827L102.243 90.4329C101.338 90.3192 100.416 90.2623 99.5012 90.2623C93.6601 90.2623 88.1792 92.53 84.0632 96.6461C79.267 101.442 76.9993 108.065 77.8476 114.828L78.3998 119.231L60.5802 124.006L59.6963 118.416C57.6916 105.684 61.9096 92.6604 70.9923 83.5776C78.5964 75.9735 88.7266 71.784 99.5107 71.784C101.62 71.784 103.752 71.9475 105.835 72.2816L111.425 73.1608Z" fill="#8463B8"/>
<path d="M124 63.423L118.413 64.3021C116.327 64.6363 114.199 64.8021 112.086 64.8021C101.301 64.8021 91.1784 60.6126 83.5719 53.0109C74.4892 43.9281 70.2665 30.8999 72.276 18.168L73.1575 12.5756L90.9794 17.3623L90.4296 21.7603C89.5837 28.5208 91.8467 35.1487 96.6428 39.9448C100.759 44.0608 106.244 46.3262 112.086 46.3262C112.996 46.3262 113.922 46.2693 114.827 46.1579L119.228 45.6034L124 63.423Z" fill="#8463B8"/>
</svg>
