<svg width="32" height="16" viewBox="0 0 32 16" fill="none" xmlns="http://www.w3.org/2000/svg">
<path d="M22.1342 11.3926C22.5463 11.583 22.9934 11.6906 23.4489 11.7093V12.433C23.4249 12.491 23.4249 12.5559 23.4489 12.614C23.5085 12.6374 23.575 12.6374 23.6345 12.614H24.2996C24.3591 12.6374 24.4257 12.6374 24.4852 12.614C24.5093 12.5559 24.5093 12.491 24.4852 12.433V11.7093C25.1409 11.6698 25.7679 11.4327 26.2794 11.0307C26.5024 10.8468 26.6786 10.6148 26.794 10.3531C26.9094 10.0915 26.9609 9.80727 26.9445 9.5229C26.9604 9.1683 26.8689 8.81697 26.6815 8.51265C26.4741 8.22766 26.1906 8.00344 25.8618 7.86428C25.3653 7.65385 24.8466 7.4971 24.3151 7.39685C24.0175 7.34224 23.7232 7.27177 23.4335 7.18576C23.2344 7.11605 23.0544 7.00253 22.9076 6.85403C22.7937 6.72399 22.7331 6.55753 22.7375 6.3866C22.7222 6.24257 22.7526 6.09744 22.8244 5.97074C22.8963 5.84404 23.0063 5.74185 23.1396 5.67792C23.4207 5.51953 23.7437 5.44606 24.0676 5.46683C24.3505 5.46417 24.6286 5.53718 24.8719 5.67792C24.9779 5.73697 25.0699 5.8172 25.1419 5.91334C25.2139 6.00949 25.2642 6.11939 25.2895 6.23582C25.3152 6.29373 25.3588 6.34234 25.4143 6.3748C25.4698 6.40726 25.5344 6.42194 25.5988 6.41676H26.6042C26.6616 6.41676 26.7167 6.39452 26.7573 6.35493C26.7979 6.31534 26.8207 6.26165 26.8207 6.20566C26.7976 5.92553 26.7018 5.65573 26.5423 5.42159C26.3473 5.13301 26.0883 4.89082 25.7845 4.71291C25.4444 4.53293 25.0712 4.4202 24.6863 4.38118V3.64235C24.6915 3.60751 24.6883 3.57197 24.6769 3.53857C24.6655 3.50516 24.6463 3.4748 24.6208 3.44991C24.5952 3.42502 24.5641 3.40628 24.5298 3.39519C24.4955 3.3841 24.4591 3.38095 24.4234 3.38601H23.6964C23.6369 3.36254 23.5703 3.36254 23.5108 3.38601C23.4867 3.44404 23.4867 3.50892 23.5108 3.56695V4.29071C22.9028 4.33577 22.3268 4.57415 21.8713 4.96924C21.6772 5.14356 21.5231 5.35593 21.4191 5.59241C21.3152 5.82888 21.2637 6.08412 21.2681 6.34137C21.2522 6.59864 21.2968 6.85605 21.3987 7.09389C21.5006 7.33173 21.657 7.54367 21.8558 7.7135C22.4026 8.10087 23.0316 8.36366 23.6964 8.48249C24.2017 8.61317 24.5832 8.72375 24.841 8.81422C25.0597 8.88098 25.2604 8.99428 25.4287 9.14594C25.4906 9.20744 25.5391 9.28062 25.571 9.36099C25.6029 9.44137 25.6176 9.52724 25.6143 9.61337C25.6163 9.74575 25.5831 9.87638 25.5181 9.99261C25.453 10.1088 25.3583 10.2067 25.2431 10.2768C24.9033 10.4596 24.5167 10.5433 24.1295 10.5181C23.7675 10.5364 23.4077 10.4526 23.0932 10.2768C22.8627 10.1434 22.6875 9.93524 22.5982 9.68876C22.5637 9.62917 22.5162 9.5777 22.459 9.53798C22.3936 9.51823 22.3235 9.51823 22.258 9.53798H21.2372C21.1825 9.51697 21.1217 9.51697 21.067 9.53798C21.048 9.58652 21.048 9.64021 21.067 9.68876C21.0822 10.0124 21.1893 10.3256 21.3764 10.5935C21.5553 10.9183 21.8161 11.1933 22.1342 11.3926Z" fill="#FB5A5B"/>
<path d="M24 16C22.4178 16 20.871 15.5308 19.5554 14.6518C18.2398 13.7727 17.2145 12.5233 16.609 11.0615C16.0035 9.59966 15.845 7.99113 16.1537 6.43928C16.4624 4.88743 17.2243 3.46197 18.3431 2.34315C19.462 1.22433 20.8874 0.462403 22.4393 0.153721C23.9911 -0.15496 25.5997 0.00346625 27.0615 0.608967C28.5233 1.21447 29.7727 2.23985 30.6518 3.55544C31.5308 4.87103 32 6.41775 32 8C31.9962 10.1206 31.1521 12.1532 29.6527 13.6527C28.1532 15.1521 26.1206 15.9962 24 16ZM24 1.43369C22.7054 1.43653 21.4406 1.82284 20.3653 2.54387C19.2901 3.2649 18.4525 4.28832 17.9584 5.48495C17.4643 6.68158 17.3357 7.99777 17.589 9.26739C17.8422 10.537 18.466 11.7031 19.3814 12.6186C20.2969 13.534 21.463 14.1578 22.7326 14.411C24.0022 14.6643 25.3184 14.5357 26.5151 14.0416C27.7117 13.5475 28.7351 12.7099 29.4561 11.6347C30.1772 10.5594 30.5635 9.29463 30.5663 8C30.5682 7.13717 30.3996 6.28246 30.0703 5.48495C29.741 4.68744 29.2574 3.96282 28.6473 3.35271C28.0372 2.74259 27.3126 2.25899 26.5151 1.92968C25.7175 1.60036 24.8628 1.4318 24 1.43369Z" fill="#FB5A5B"/>
<path d="M13.4204 8.74688H2.5509L4.44316 10.5931C4.5699 10.7302 4.63737 10.9085 4.63175 11.0918C4.62614 11.275 4.54787 11.4493 4.41296 11.5789C4.27805 11.7085 4.0967 11.7837 3.90599 11.7891C3.71528 11.7945 3.52963 11.7297 3.38702 11.6079L0.218584 8.53548C0.152153 8.47036 0.0998049 8.39324 0.064558 8.30858C0.0293102 8.22391 0.0118637 8.13338 0.0132227 8.0422C-0.00423527 7.95373 -0.00423527 7.8629 0.0132227 7.77443C0.0612984 7.67631 0.131437 7.58966 0.218584 7.52074L3.40169 4.39196C3.5443 4.27019 3.72995 4.20537 3.92066 4.21076C4.11137 4.21615 4.29272 4.29135 4.42763 4.42097C4.56254 4.55059 4.64081 4.72484 4.64642 4.90807C4.65204 5.09131 4.58457 5.26968 4.45783 5.4067L2.52157 7.26705H13.4204C13.529 7.24609 13.641 7.24854 13.7485 7.27424C13.856 7.29994 13.9562 7.34824 14.0418 7.41566C14.1275 7.48308 14.1965 7.56793 14.2439 7.66409C14.2913 7.76026 14.3159 7.86533 14.3159 7.97174C14.3159 8.07814 14.2913 8.18321 14.2439 8.27938C14.1965 8.37554 14.1275 8.46039 14.0418 8.52781C13.9562 8.59523 13.856 8.64353 13.7485 8.66923C13.641 8.69493 13.529 8.69738 13.4204 8.67642V8.74688Z" fill="#FB5A5B"/>
</svg>
