<svg width="17" height="19" viewBox="0 0 17 19" fill="none" xmlns="http://www.w3.org/2000/svg">
<path d="M5.30799 16.7118C5.68875 17.1932 6.17393 17.5819 6.7269 17.8484C7.27987 18.1148 7.88617 18.2522 8.49999 18.25C9.11382 18.2522 9.72011 18.1148 10.2731 17.8484C10.8261 17.5819 11.3112 17.1932 11.692 16.7118C9.57368 16.9989 7.42631 16.9989 5.30799 16.7118ZM14.4062 6.875V7.491C14.4062 8.23038 14.6162 8.95312 15.0117 9.56825L15.9812 11.0759C16.8659 12.4531 16.1904 14.3247 14.6512 14.7596C10.6295 15.8988 6.37046 15.8988 2.34874 14.7596C0.809618 14.3247 0.134118 12.4531 1.01874 11.0759L1.98824 9.56825C2.38512 8.94819 2.59559 8.2272 2.59462 7.491V6.875C2.59462 3.49225 5.23887 0.75 8.49999 0.75C11.7611 0.75 14.4062 3.49225 14.4062 6.875Z" fill="#777777" fill-opacity="0.72"/>
</svg>
