<svg width="16" height="16" viewBox="0 0 16 16" fill="none" xmlns="http://www.w3.org/2000/svg">
<path d="M7.86792 15.3765C9.30527 15.3765 10.7103 14.9503 11.9054 14.1517C13.1005 13.3532 14.032 12.2182 14.5821 10.8902C15.1321 9.5623 15.276 8.10108 14.9956 6.69135C14.7152 5.28163 14.0231 3.98671 13.0067 2.97035C11.9904 1.954 10.6954 1.26185 9.28571 0.98144C7.87599 0.701028 6.41477 0.844946 5.08683 1.39499C3.7589 1.94504 2.6239 2.87651 1.82535 4.07162C1.02681 5.26673 0.600586 6.67179 0.600586 8.10914C0.600586 10.0366 1.36625 11.885 2.72914 13.2479C4.09203 14.6108 5.94051 15.3765 7.86792 15.3765ZM4.2338 11.0161L0.600586 8.10914L4.2338 5.2022V7.38195H10.0477V8.83542H4.2338V11.0161Z" fill="#5B5F97"/>
</svg>
