<svg width="11" height="11" viewBox="0 0 11 11" fill="none" xmlns="http://www.w3.org/2000/svg">
<path d="M10.3752 5.49989C10.2315 5.49989 10.0937 5.55695 9.99215 5.65854C9.89056 5.76012 9.8335 5.89789 9.8335 6.04155V9.29155C9.8335 9.43521 9.77643 9.57299 9.67485 9.67457C9.57326 9.77615 9.43549 9.83322 9.29183 9.83322H1.7085C1.56484 9.83322 1.42706 9.77615 1.32548 9.67457C1.2239 9.57299 1.16683 9.43521 1.16683 9.29155V1.70822C1.16683 1.56456 1.2239 1.42678 1.32548 1.3252C1.42706 1.22362 1.56484 1.16655 1.7085 1.16655H4.9585C5.10216 1.16655 5.23993 1.10948 5.34151 1.0079C5.44309 0.90632 5.50016 0.768544 5.50016 0.624886C5.50016 0.481227 5.44309 0.343452 5.34151 0.241869C5.23993 0.140287 5.10216 0.0832189 4.9585 0.0832189H1.7085C1.27752 0.0832189 0.864194 0.254424 0.559448 0.55917C0.254701 0.863917 0.0834961 1.27724 0.0834961 1.70822V9.29155C0.0834961 9.72253 0.254701 10.1359 0.559448 10.4406C0.864194 10.7453 1.27752 10.9166 1.7085 10.9166H9.29183C9.72281 10.9166 10.1361 10.7453 10.4409 10.4406C10.7456 10.1359 10.9168 9.72253 10.9168 9.29155V6.04155C10.9168 5.89789 10.8598 5.76012 10.7582 5.65854C10.6566 5.55695 10.5188 5.49989 10.3752 5.49989ZM2.25016 5.91155V8.20822C2.25016 8.35188 2.30723 8.48965 2.40881 8.59124C2.5104 8.69282 2.64817 8.74989 2.79183 8.74989H5.0885C5.15978 8.7503 5.23045 8.73663 5.29645 8.70968C5.36244 8.68272 5.42247 8.643 5.47308 8.5928L9.22141 4.83905L10.7597 3.33322C10.8105 3.28286 10.8508 3.22295 10.8783 3.15695C10.9058 3.09094 10.92 3.02014 10.92 2.94864C10.92 2.87713 10.9058 2.80633 10.8783 2.74032C10.8508 2.67432 10.8105 2.61441 10.7597 2.56405L8.46308 0.240302C8.41272 0.189533 8.35282 0.149236 8.28681 0.121736C8.2208 0.0942363 8.15 0.0800781 8.0785 0.0800781C8.00699 0.0800781 7.93619 0.0942363 7.87018 0.121736C7.80418 0.149236 7.74427 0.189533 7.69391 0.240302L6.16641 1.77322L2.40725 5.52697C2.35704 5.57758 2.31733 5.63761 2.29037 5.7036C2.26341 5.7696 2.24975 5.84027 2.25016 5.91155ZM8.0785 1.38864L9.61141 2.92155L8.84225 3.69072L7.30933 2.1578L8.0785 1.38864ZM3.3335 6.13364L6.54558 2.92155L8.0785 4.45447L4.86641 7.66655H3.3335V6.13364Z" fill="#696DA0"/>
</svg>
