<svg width="286" height="192" viewBox="0 0 286 192" fill="none" xmlns="http://www.w3.org/2000/svg">
<path d="M234.27 114.423C234.459 114.366 234.652 114.325 234.847 114.299L242.641 98.4627L240.263 94.8964L245.177 90.5985L251.354 98.1582L238.772 116.471C239.081 117.163 239.173 117.934 239.034 118.679C238.895 119.425 238.532 120.111 237.994 120.646C237.456 121.18 236.768 121.538 236.021 121.672C235.274 121.806 234.505 121.709 233.814 121.395C233.124 121.081 232.545 120.564 232.156 119.913C231.766 119.262 231.584 118.508 231.634 117.751C231.683 116.994 231.962 116.27 232.433 115.676C232.904 115.081 233.544 114.644 234.27 114.423Z" fill="#A0616A"/>
<path d="M247.575 92.7895C247.467 92.9018 247.344 92.9979 247.209 93.0748L239.235 97.6973C239.044 97.8084 238.831 97.8785 238.611 97.9033C238.391 97.928 238.168 97.9067 237.956 97.8409C237.745 97.7751 237.549 97.6661 237.382 97.5208C237.215 97.3755 237.079 97.1971 236.985 96.9968L233.107 88.8034C232.941 88.4581 232.905 88.0647 233.006 87.6953C233.107 87.3258 233.337 87.005 233.655 86.7916L238.599 83.4292C238.907 83.2196 239.28 83.1242 239.651 83.1596C240.022 83.195 240.37 83.3589 240.633 83.6231L247.542 90.5564C247.836 90.8515 248.003 91.2494 248.009 91.6659C248.015 92.0824 247.858 92.4847 247.572 92.7876L247.575 92.7895Z" fill="#FB5A5B"/>
<path d="M258.771 183.534L254.565 184.679L248.143 168.986L254.361 167.295L258.771 183.534Z" fill="#A0616A"/>
<path d="M251.227 184.293L259.35 182.083L260.741 187.196L247.506 190.797C247.137 189.441 247.322 187.994 248.019 186.774C248.717 185.555 249.871 184.662 251.227 184.293Z" fill="#2F2E41"/>
<path d="M222.779 186.746H218.416L216.34 169.92H222.78L222.779 186.746Z" fill="#A0616A"/>
<path d="M215.3 185.499H223.713V190.797H209.996C209.996 190.101 210.133 189.411 210.4 188.768C210.666 188.125 211.057 187.541 211.55 187.049C212.042 186.557 212.627 186.166 213.27 185.9C213.914 185.634 214.603 185.498 215.3 185.499Z" fill="#2F2E41"/>
<path d="M227.376 77.8439C232.204 77.8439 236.118 73.9304 236.118 69.1027C236.118 64.2751 232.204 60.3616 227.376 60.3616C222.549 60.3616 218.635 64.2751 218.635 69.1027C218.635 73.9304 222.549 77.8439 227.376 77.8439Z" fill="#A0616A"/>
<path d="M222.513 174.746H216.549C216.142 174.745 215.75 174.59 215.453 174.311C215.155 174.032 214.975 173.65 214.949 173.243C213.172 144.999 214.211 124.739 218.22 109.483C218.238 109.416 218.259 109.35 218.285 109.286L218.604 108.488C218.722 108.19 218.927 107.935 219.193 107.756C219.458 107.576 219.771 107.481 220.091 107.482H232.352C232.583 107.482 232.811 107.532 233.021 107.628C233.231 107.725 233.418 107.866 233.568 108.042L235.233 109.985C235.266 110.022 235.296 110.062 235.325 110.102C242.835 120.574 249.565 141.049 257.363 168.568C257.478 168.968 257.432 169.397 257.236 169.763C257.039 170.13 256.707 170.406 256.31 170.531L249.902 172.581C249.534 172.697 249.137 172.677 248.783 172.524C248.428 172.372 248.141 172.098 247.972 171.751L231.343 137.262C231.227 137.021 231.036 136.823 230.799 136.699C230.562 136.574 230.291 136.53 230.027 136.572C229.762 136.613 229.518 136.739 229.331 136.931C229.143 137.122 229.023 137.369 228.987 137.634L224.101 173.361C224.047 173.745 223.857 174.096 223.565 174.35C223.273 174.604 222.9 174.745 222.513 174.746Z" fill="#2F2E41"/>
<path d="M234.559 110.126H234.508L219.615 109.656C219.232 109.645 218.865 109.497 218.583 109.238C218.3 108.98 218.119 108.629 218.074 108.248C216.186 92.9651 221.366 88.8711 223.678 87.8204C223.871 87.7331 224.039 87.5973 224.164 87.4262C224.289 87.2551 224.369 87.0545 224.394 86.8438L224.594 85.2417C224.628 84.9587 224.737 84.69 224.91 84.4635C227.699 80.9313 231.692 78.5506 236.125 77.7761C236.338 77.7378 236.557 77.7433 236.769 77.7923C236.98 77.8412 237.179 77.9326 237.354 78.0609C237.529 78.1892 237.676 78.3517 237.786 78.5386C237.896 78.7254 237.967 78.9327 237.994 79.1478L238.294 81.4477C238.325 81.667 238.412 81.8744 238.548 82.0493C246.114 91.9409 237.685 106.545 235.919 109.372C235.775 109.603 235.574 109.793 235.336 109.925C235.098 110.056 234.831 110.126 234.559 110.126Z" fill="#FB5A5B"/>
<path d="M245.013 70.0867C243.063 67.3411 240.725 64.8932 238.071 62.8196C235.906 61.0314 233.397 59.7046 230.701 58.9204C227.98 58.1444 225.068 58.4051 222.528 59.6519C220.059 60.966 217.499 63.5758 217.485 66.3749C217.481 67.2738 217.709 68.4909 218.594 68.3355L218.85 68.3693L225.259 67.0745L227.989 76.5472C227.984 76.8932 228.077 77.2334 228.258 77.5283C228.439 77.8233 228.7 78.0609 229.011 78.2135C229.321 78.3662 229.668 78.4276 230.012 78.3906C230.356 78.3537 230.683 78.2199 230.954 78.0048C231.053 77.9637 231.904 76.0543 231.904 76.0543C231.925 75.9947 231.962 75.9419 232.011 75.9012C232.059 75.8606 232.118 75.8337 232.18 75.8233C232.243 75.8129 232.307 75.8193 232.366 75.8419C232.425 75.8645 232.477 75.9025 232.517 75.9519L233.023 76.5838C233.119 76.7046 233.252 76.7906 233.402 76.8289C233.552 76.8672 233.71 76.8556 233.853 76.7959L244.304 72.4331C244.785 72.2319 245.324 71.9695 245.464 71.4666C245.493 71.2176 245.468 70.9652 245.39 70.7268C245.313 70.4885 245.184 70.27 245.013 70.0867Z" fill="#2F2E41"/>
<path d="M285.058 191.117H177.932C177.838 191.117 177.748 191.08 177.681 191.013C177.614 190.946 177.577 190.856 177.577 190.761C177.577 190.667 177.614 190.577 177.681 190.51C177.748 190.443 177.838 190.406 177.932 190.406H285.058C285.152 190.406 285.243 190.443 285.309 190.51C285.376 190.577 285.414 190.667 285.414 190.761C285.414 190.856 285.376 190.946 285.309 191.013C285.243 191.08 285.152 191.117 285.058 191.117Z" fill="#3F3D56"/>
<path d="M226.981 135.656C226.739 135.655 226.504 135.577 226.309 135.434L224.689 134.257C224.554 134.159 224.392 134.106 224.226 134.106C224.059 134.106 223.897 134.159 223.763 134.257L222.142 135.434C221.947 135.576 221.711 135.653 221.469 135.653C221.228 135.653 220.992 135.576 220.796 135.434C220.601 135.292 220.456 135.091 220.381 134.861C220.307 134.631 220.307 134.383 220.382 134.154L221.001 132.249C221.053 132.091 221.053 131.92 221.001 131.762C220.95 131.604 220.85 131.466 220.715 131.368L219.094 130.191C218.899 130.049 218.754 129.849 218.68 129.62C218.605 129.39 218.605 129.143 218.68 128.913C218.755 128.684 218.9 128.484 219.095 128.342C219.29 128.2 219.525 128.123 219.766 128.123H221.769C221.936 128.123 222.099 128.07 222.233 127.971C222.368 127.872 222.468 127.733 222.518 127.574L223.137 125.669C223.212 125.44 223.357 125.24 223.553 125.098C223.748 124.956 223.983 124.88 224.225 124.88C224.466 124.88 224.701 124.956 224.897 125.098C225.092 125.24 225.238 125.44 225.313 125.669L225.932 127.574C225.982 127.733 226.082 127.872 226.216 127.971C226.351 128.07 226.514 128.123 226.68 128.123H228.683C228.924 128.123 229.159 128.2 229.355 128.342C229.55 128.484 229.695 128.684 229.769 128.913C229.844 129.143 229.844 129.39 229.77 129.62C229.695 129.849 229.55 130.049 229.355 130.191L227.735 131.368C227.6 131.466 227.5 131.604 227.448 131.762C227.397 131.92 227.397 132.091 227.449 132.249L228.068 134.154C228.146 134.383 228.147 134.632 228.072 134.863C227.998 135.093 227.85 135.294 227.653 135.434C227.458 135.577 227.223 135.655 226.981 135.656Z" fill="#FFB41E"/>
<path d="M233.173 131.845C233.631 131.524 234.013 131.106 234.292 130.622C234.571 130.137 234.74 129.598 234.787 129.041C234.835 128.484 234.76 127.923 234.568 127.398C234.375 126.873 234.07 126.397 233.674 126.003L236.44 92.5948L228.203 93.7278L228.046 126.191C227.421 126.899 227.078 127.813 227.084 128.758C227.09 129.703 227.444 130.612 228.079 131.312C228.713 132.012 229.584 132.454 230.523 132.553C231.463 132.652 232.406 132.4 233.173 131.847L233.173 131.845Z" fill="#A0616A"/>
<path d="M236.978 97.4095C236.824 97.4097 236.67 97.3875 236.521 97.3436L227.679 94.7429C227.466 94.6805 227.269 94.5746 227.099 94.432C226.93 94.2893 226.792 94.1131 226.694 93.9144C226.596 93.7157 226.54 93.4988 226.531 93.2775C226.521 93.0563 226.557 92.8353 226.637 92.6287L229.91 84.1747C230.046 83.8176 230.306 83.5215 230.643 83.3404C230.98 83.1592 231.37 83.1052 231.743 83.188L237.586 84.4582C237.95 84.5375 238.276 84.7418 238.506 85.0356C238.736 85.3294 238.857 85.6945 238.847 86.0676L238.572 95.8522C238.56 96.2679 238.386 96.6625 238.088 96.9526C237.79 97.2426 237.391 97.4055 236.975 97.4067L236.978 97.4095Z" fill="#FB5A5B"/>
<path opacity="0.38" d="M153.748 139.157H2.49095C1.83053 139.156 1.19737 138.893 0.730386 138.426C0.2634 137.959 0.000726133 137.326 0 136.666V91.4656C0.000726133 90.8051 0.2634 90.172 0.730386 89.705C1.19737 89.238 1.83053 88.9753 2.49095 88.9746H153.748C154.409 88.9753 155.042 89.238 155.509 89.705C155.976 90.172 156.239 90.8051 156.239 91.4656V136.665C156.239 137.325 155.976 137.958 155.509 138.425C155.042 138.892 154.409 139.155 153.748 139.156V139.157ZM2.49095 89.6851C2.01914 89.6856 1.5668 89.8733 1.23318 90.2069C0.899562 90.5405 0.711922 90.9928 0.711438 91.4646V136.664C0.711922 137.136 0.899562 137.588 1.23318 137.922C1.5668 138.255 2.01914 138.443 2.49095 138.443H153.748C154.22 138.443 154.672 138.255 155.006 137.922C155.34 137.588 155.527 137.136 155.528 136.664V91.4656C155.527 90.9937 155.34 90.5414 155.006 90.2078C154.672 89.8742 154.22 89.6865 153.748 89.6861L2.49095 89.6851Z" fill="#3F3D56"/>
<path d="M68.6794 158.189C68.3829 158.187 68.0947 158.091 67.8564 157.914L65.8721 156.472C65.7073 156.352 65.5086 156.287 65.3046 156.287C65.1006 156.287 64.902 156.352 64.7372 156.472L62.7529 157.914C62.5135 158.089 62.2252 158.182 61.9292 158.182C61.6332 158.183 61.3448 158.089 61.1054 157.915C60.8659 157.741 60.6877 157.496 60.5963 157.214C60.5049 156.933 60.505 156.629 60.5966 156.348L61.3547 154.015C61.4181 153.821 61.4183 153.613 61.3554 153.419C61.2924 153.225 61.1696 153.056 61.0045 152.936L59.0201 151.494C58.7806 151.32 58.6022 151.075 58.5106 150.794C58.4191 150.512 58.419 150.209 58.5104 149.928C58.6018 149.646 58.78 149.401 59.0194 149.227C59.2588 149.053 59.5472 148.959 59.8431 148.959H62.2966C62.4998 148.959 62.6978 148.894 62.862 148.774C63.0263 148.655 63.1485 148.486 63.211 148.293L63.9691 145.96C64.0605 145.679 64.2387 145.433 64.478 145.26C64.7173 145.086 65.0056 144.992 65.3014 144.992C65.5973 144.992 65.8855 145.086 66.1249 145.26C66.3642 145.433 66.5424 145.679 66.6338 145.96L67.3918 148.293C67.4544 148.486 67.5766 148.655 67.7408 148.774C67.9051 148.894 68.103 148.959 68.3063 148.959H70.7598C71.0555 148.96 71.3435 149.053 71.5827 149.227C71.8219 149.401 71.9999 149.646 72.0912 149.927C72.1826 150.209 72.1826 150.512 72.0912 150.793C71.9999 151.074 71.8219 151.319 71.5828 151.493L69.5984 152.935C69.4333 153.055 69.3105 153.224 69.2475 153.418C69.1846 153.612 69.1848 153.821 69.2482 154.014L70.0063 156.347C70.101 156.628 70.1027 156.932 70.0109 157.215C69.9192 157.497 69.7389 157.742 69.4969 157.914C69.2586 158.09 68.9704 158.186 68.6739 158.188L68.6794 158.189Z" fill="#FFBF40"/>
<path d="M88.7909 158.189C88.4944 158.187 88.2062 158.091 87.9679 157.915L85.9836 156.473C85.8189 156.352 85.6202 156.287 85.4162 156.287C85.2122 156.287 85.0135 156.352 84.8488 156.473L82.8644 157.915C82.6251 158.089 82.3367 158.183 82.0408 158.183C81.7448 158.183 81.4564 158.089 81.2169 157.915C80.9775 157.741 80.7993 157.496 80.7079 157.214C80.6165 156.933 80.6165 156.63 80.7081 156.348L81.4662 154.015C81.5296 153.822 81.5298 153.613 81.4669 153.419C81.404 153.225 81.2811 153.056 81.116 152.936L79.1316 151.494C78.8925 151.32 78.7145 151.075 78.6232 150.794C78.5318 150.513 78.5319 150.21 78.6232 149.929C78.7146 149.647 78.8926 149.402 79.1317 149.228C79.3709 149.054 79.6589 148.961 79.9547 148.96H82.4081C82.6114 148.96 82.8093 148.895 82.9736 148.776C83.1379 148.656 83.26 148.487 83.3225 148.294L84.0806 145.961C84.1721 145.68 84.3502 145.434 84.5895 145.261C84.8289 145.087 85.1171 144.993 85.413 144.993C85.7088 144.993 85.997 145.087 86.2364 145.261C86.4757 145.434 86.6539 145.68 86.7453 145.961L87.5034 148.294C87.5659 148.487 87.6881 148.656 87.8523 148.776C88.0166 148.895 88.2146 148.96 88.4178 148.96H90.8713C91.167 148.961 91.4551 149.054 91.6942 149.228C91.9334 149.402 92.1114 149.647 92.2027 149.929C92.2941 150.21 92.2941 150.513 92.2028 150.794C92.1114 151.075 91.9334 151.32 91.6943 151.494L89.71 152.936C89.5449 153.056 89.422 153.225 89.3591 153.419C89.2961 153.613 89.2964 153.822 89.3597 154.015L90.1178 156.348C90.2126 156.629 90.2142 156.934 90.1225 157.216C90.0307 157.498 89.8505 157.743 89.6084 157.915C89.3701 158.091 89.0819 158.187 88.7854 158.189H88.7909Z" fill="#FFBF40"/>
<path d="M108.903 158.189C108.606 158.187 108.318 158.091 108.08 157.915L106.096 156.473C105.931 156.352 105.732 156.288 105.528 156.288C105.324 156.288 105.126 156.352 104.961 156.473L102.976 157.915C102.737 158.089 102.449 158.183 102.153 158.183C101.857 158.183 101.568 158.089 101.329 157.915C101.089 157.741 100.911 157.496 100.82 157.214C100.728 156.933 100.728 156.63 100.82 156.348L101.578 154.015C101.642 153.822 101.642 153.613 101.579 153.419C101.516 153.225 101.393 153.056 101.228 152.936L99.2436 151.494C99.0044 151.32 98.8264 151.075 98.7351 150.794C98.6438 150.513 98.6438 150.21 98.7351 149.929C98.8265 149.647 99.0045 149.402 99.2436 149.228C99.4828 149.054 99.7709 148.961 100.067 148.96H102.52C102.723 148.96 102.921 148.895 103.086 148.776C103.25 148.656 103.372 148.487 103.434 148.294L104.193 145.961C104.284 145.68 104.462 145.434 104.701 145.261C104.941 145.087 105.229 144.993 105.525 144.993C105.821 144.993 106.109 145.087 106.348 145.261C106.588 145.434 106.766 145.68 106.857 145.961L107.615 148.294C107.678 148.487 107.8 148.656 107.964 148.776C108.129 148.895 108.326 148.96 108.53 148.96H110.983C111.279 148.961 111.567 149.054 111.806 149.228C112.045 149.402 112.223 149.647 112.315 149.929C112.406 150.21 112.406 150.513 112.315 150.794C112.223 151.075 112.045 151.32 111.806 151.494L109.822 152.936C109.657 153.056 109.534 153.225 109.471 153.419C109.408 153.613 109.408 153.822 109.472 154.015L110.23 156.348C110.325 156.629 110.326 156.934 110.234 157.216C110.143 157.498 109.962 157.743 109.72 157.915C109.484 158.09 109.197 158.186 108.903 158.189Z" fill="#FFBF40"/>
<path d="M129.013 158.189C128.717 158.187 128.429 158.091 128.19 157.914L126.206 156.472C126.041 156.352 125.843 156.288 125.639 156.288C125.435 156.288 125.237 156.352 125.072 156.472L123.088 157.914C122.849 158.089 122.56 158.182 122.264 158.182C121.968 158.183 121.68 158.089 121.44 157.915C121.201 157.741 121.023 157.496 120.931 157.214C120.84 156.933 120.84 156.629 120.932 156.348L121.69 154.015C121.753 153.822 121.753 153.613 121.691 153.419C121.628 153.225 121.505 153.056 121.339 152.936L119.355 151.494C119.116 151.32 118.937 151.075 118.846 150.794C118.754 150.512 118.754 150.209 118.845 149.928C118.937 149.646 119.115 149.401 119.354 149.227C119.594 149.053 119.882 148.959 120.178 148.959H122.632C122.835 148.959 123.033 148.894 123.197 148.774C123.361 148.655 123.483 148.486 123.546 148.293L124.304 145.96C124.395 145.679 124.574 145.433 124.813 145.26C125.052 145.086 125.341 144.992 125.636 144.992C125.932 144.992 126.22 145.086 126.46 145.26C126.699 145.433 126.877 145.679 126.969 145.96L127.727 148.293C127.789 148.486 127.911 148.655 128.076 148.775C128.24 148.894 128.438 148.959 128.641 148.959H131.095C131.391 148.959 131.679 149.053 131.918 149.227C132.158 149.401 132.336 149.646 132.427 149.928C132.519 150.209 132.519 150.512 132.427 150.794C132.336 151.075 132.157 151.32 131.918 151.494L129.933 152.936C129.768 153.056 129.645 153.225 129.582 153.419C129.52 153.613 129.52 153.821 129.583 154.015L130.341 156.348C130.436 156.629 130.438 156.933 130.346 157.216C130.254 157.498 130.074 157.743 129.832 157.914C129.595 158.09 129.308 158.186 129.013 158.189Z" fill="#FFBF40"/>
<path d="M142.375 158.327C142.05 158.326 141.733 158.221 141.471 158.028C141.205 157.839 141.007 157.57 140.906 157.26C140.805 156.95 140.807 156.616 140.911 156.307L141.669 153.974C141.724 153.808 141.724 153.629 141.67 153.463C141.616 153.297 141.51 153.152 141.368 153.05L139.384 151.608C139.121 151.417 138.926 151.147 138.826 150.838C138.725 150.529 138.725 150.196 138.826 149.888C138.926 149.579 139.122 149.309 139.384 149.118C139.647 148.927 139.964 148.824 140.289 148.824H142.742C142.917 148.825 143.087 148.77 143.229 148.667C143.37 148.564 143.475 148.419 143.528 148.253L144.287 145.92C144.387 145.611 144.583 145.342 144.846 145.152C145.109 144.961 145.425 144.858 145.75 144.858C146.074 144.858 146.391 144.961 146.653 145.152C146.916 145.342 147.112 145.611 147.213 145.92L147.971 148.253C148.024 148.419 148.129 148.564 148.271 148.667C148.412 148.77 148.582 148.825 148.757 148.824H151.211C151.535 148.824 151.852 148.927 152.115 149.118C152.377 149.309 152.573 149.579 152.673 149.888C152.774 150.196 152.774 150.529 152.674 150.838C152.573 151.147 152.378 151.417 152.115 151.608L150.131 153.05C149.989 153.152 149.883 153.297 149.829 153.463C149.775 153.629 149.775 153.808 149.83 153.974L150.588 156.307C150.689 156.616 150.689 156.949 150.588 157.258C150.488 157.568 150.292 157.837 150.029 158.028C149.766 158.219 149.449 158.322 149.124 158.322C148.799 158.322 148.482 158.219 148.22 158.028L146.235 156.586C146.094 156.483 145.924 156.427 145.749 156.427C145.574 156.427 145.404 156.483 145.263 156.586L143.279 158.028C143.017 158.221 142.701 158.326 142.375 158.327ZM145.75 155.715C146.076 155.715 146.392 155.818 146.655 156.01L148.64 157.452C148.781 157.558 148.952 157.615 149.128 157.617C149.304 157.618 149.476 157.563 149.618 157.46C149.76 157.356 149.866 157.21 149.919 157.042C149.972 156.874 149.97 156.694 149.913 156.527L149.155 154.195C149.054 153.886 149.054 153.553 149.154 153.244C149.254 152.934 149.45 152.665 149.714 152.475L151.698 151.032C151.842 150.931 151.95 150.786 152.005 150.62C152.061 150.453 152.062 150.272 152.007 150.105C151.953 149.937 151.846 149.792 151.703 149.69C151.56 149.587 151.388 149.534 151.212 149.536H148.758C148.433 149.537 148.116 149.434 147.853 149.243C147.59 149.052 147.395 148.782 147.295 148.473L146.537 146.14C146.485 145.972 146.381 145.824 146.239 145.72C146.098 145.615 145.926 145.558 145.75 145.558C145.574 145.558 145.402 145.615 145.261 145.72C145.119 145.824 145.015 145.972 144.963 146.14L144.205 148.473C144.105 148.782 143.91 149.052 143.647 149.243C143.384 149.434 143.067 149.537 142.742 149.536H140.289C140.113 149.534 139.94 149.587 139.797 149.69C139.654 149.792 139.547 149.937 139.493 150.105C139.439 150.272 139.439 150.453 139.495 150.62C139.55 150.786 139.658 150.931 139.802 151.032L141.786 152.475C142.05 152.665 142.245 152.934 142.346 153.244C142.446 153.553 142.446 153.886 142.345 154.195L141.587 156.527C141.53 156.694 141.528 156.874 141.581 157.042C141.634 157.21 141.74 157.356 141.882 157.46C142.024 157.563 142.196 157.618 142.372 157.617C142.548 157.615 142.719 157.558 142.86 157.452L144.844 156.01C145.107 155.818 145.424 155.715 145.749 155.715H145.75Z" fill="#FFB41E"/>
<path d="M19.5745 99.6516C18.9609 99.6516 18.3725 99.8954 17.9386 100.329C17.5047 100.763 17.261 101.352 17.261 101.965C17.261 102.579 17.5047 103.167 17.9386 103.601C18.3725 104.035 18.9609 104.279 19.5745 104.279H136.665C137.279 104.279 137.868 104.035 138.301 103.601C138.735 103.167 138.979 102.579 138.979 101.965C138.979 101.352 138.735 100.763 138.301 100.329C137.868 99.8954 137.279 99.6516 136.665 99.6516H19.5745Z" fill="#CCCCCC"/>
<path d="M19.5745 111.752C18.9609 111.752 18.3725 111.996 17.9386 112.43C17.5047 112.864 17.261 113.452 17.261 114.066C17.261 114.68 17.5047 115.268 17.9386 115.702C18.3725 116.136 18.9609 116.38 19.5745 116.38H136.665C137.279 116.38 137.868 116.136 138.301 115.702C138.735 115.268 138.979 114.68 138.979 114.066C138.979 113.452 138.735 112.864 138.301 112.43C137.868 111.996 137.279 111.752 136.665 111.752H19.5745Z" fill="#CCCCCC"/>
<path d="M19.5745 123.853C18.9609 123.853 18.3725 124.097 17.9386 124.531C17.5047 124.965 17.261 125.553 17.261 126.167C17.261 126.78 17.5047 127.369 17.9386 127.803C18.3725 128.236 18.9609 128.48 19.5745 128.48H136.665C137.279 128.48 137.868 128.236 138.301 127.803C138.735 127.369 138.979 126.78 138.979 126.167C138.979 125.553 138.735 124.965 138.301 124.531C137.868 124.097 137.279 123.853 136.665 123.853H19.5745Z" fill="#CCCCCC"/>
<path d="M19.5745 99.6516C18.9609 99.6516 18.3725 99.8954 17.9386 100.329C17.5047 100.763 17.261 101.352 17.261 101.965C17.261 102.579 17.5047 103.167 17.9386 103.601C18.3725 104.035 18.9609 104.279 19.5745 104.279H136.665C137.279 104.279 137.868 104.035 138.301 103.601C138.735 103.167 138.979 102.579 138.979 101.965C138.979 101.352 138.735 100.763 138.301 100.329C137.868 99.8954 137.279 99.6516 136.665 99.6516H19.5745Z" fill="#CCCCCC"/>
<path d="M19.5745 111.752C18.9609 111.752 18.3725 111.996 17.9386 112.43C17.5047 112.864 17.261 113.452 17.261 114.066C17.261 114.68 17.5047 115.268 17.9386 115.702C18.3725 116.136 18.9609 116.38 19.5745 116.38H136.665C137.279 116.38 137.868 116.136 138.301 115.702C138.735 115.268 138.979 114.68 138.979 114.066C138.979 113.452 138.735 112.864 138.301 112.43C137.868 111.996 137.279 111.752 136.665 111.752H19.5745Z" fill="#CCCCCC"/>
<path d="M19.5745 123.853C18.9609 123.853 18.3725 124.097 17.9386 124.531C17.5047 124.965 17.261 125.553 17.261 126.167C17.261 126.78 17.5047 127.369 17.9386 127.803C18.3725 128.236 18.9609 128.48 19.5745 128.48H136.665C137.279 128.48 137.868 128.236 138.301 127.803C138.735 127.369 138.979 126.78 138.979 126.167C138.979 125.553 138.735 124.965 138.301 124.531C137.868 124.097 137.279 123.853 136.665 123.853H19.5745Z" fill="#CCCCCC"/>
<path opacity="0.38" d="M153.748 50.182H2.49095C1.83053 50.1812 1.19737 49.9186 0.730386 49.4516C0.2634 48.9846 0.000726133 48.3514 0 47.691V2.49095C0.000726133 1.83053 0.2634 1.19737 0.730386 0.730386C1.19737 0.2634 1.83053 0.000726133 2.49095 0H153.748C154.409 0.000726133 155.042 0.2634 155.509 0.730386C155.976 1.19737 156.239 1.83053 156.239 2.49095V47.6901C156.239 48.3505 155.976 48.9837 155.509 49.4507C155.042 49.9177 154.409 50.1812 153.748 50.182ZM2.49095 0.710517C2.01914 0.711001 1.5668 0.898641 1.23318 1.23226C0.899562 1.56588 0.711922 2.01823 0.711438 2.49004V47.6892C0.711922 48.161 0.899562 48.6133 1.23318 48.947C1.5668 49.2806 2.01914 49.4682 2.49095 49.4687H153.748C154.22 49.4682 154.672 49.2806 155.006 48.947C155.34 48.6133 155.527 48.161 155.528 47.6892V2.49095C155.527 2.01914 155.34 1.5668 155.006 1.23318C154.672 0.899562 154.22 0.711922 153.748 0.711438L2.49095 0.710517Z" fill="#3F3D56"/>
<path d="M68.6794 69.2135C68.3829 69.2117 68.0947 69.1156 67.8564 68.9391L65.8721 67.497C65.7073 67.3767 65.5086 67.3119 65.3046 67.3119C65.1006 67.3119 64.902 67.3767 64.7372 67.497L62.7529 68.9391C62.5135 69.1132 62.2252 69.2071 61.9292 69.2071C61.6332 69.2072 61.3448 69.1136 61.1054 68.9396C60.8659 68.7657 60.6877 68.5203 60.5963 68.2388C60.5049 67.9573 60.505 67.6541 60.5966 67.3727L61.3547 65.0399C61.4181 64.8462 61.4183 64.6373 61.3554 64.4433C61.2924 64.2494 61.1696 64.0805 61.0045 63.9609L59.0201 62.5188C58.7806 62.345 58.6022 62.0998 58.5106 61.8184C58.4191 61.5369 58.419 61.2338 58.5104 60.9523C58.6018 60.6708 58.78 60.4255 59.0194 60.2515C59.2588 60.0776 59.5472 59.9839 59.8431 59.9839H62.2966C62.4998 59.9836 62.6978 59.9189 62.862 59.7991C63.0263 59.6794 63.1485 59.5107 63.211 59.3173L63.9691 56.9846C64.0605 56.7032 64.2387 56.458 64.478 56.2841C64.7173 56.1103 65.0056 56.0166 65.3014 56.0166C65.5973 56.0166 65.8855 56.1103 66.1249 56.2841C66.3642 56.458 66.5424 56.7032 66.6338 56.9846L67.3918 59.3173C67.4544 59.5107 67.5766 59.6794 67.7408 59.7991C67.9051 59.9189 68.103 59.9836 68.3063 59.9839H70.7598C71.0557 59.9839 71.3441 60.0776 71.5835 60.2515C71.8229 60.4255 72.0011 60.6708 72.0925 60.9523C72.1839 61.2338 72.1838 61.5369 72.0922 61.8184C72.0006 62.0998 71.8223 62.345 71.5828 62.5188L69.5984 63.9609C69.4333 64.0805 69.3105 64.2494 69.2475 64.4433C69.1846 64.6373 69.1848 64.8462 69.2482 65.0399L70.0063 67.3727C70.101 67.6538 70.1027 67.958 70.0109 68.2402C69.9192 68.5224 69.7389 68.7675 69.4969 68.9391C69.2601 69.1144 68.974 69.2105 68.6794 69.2135Z" fill="#FFBF40"/>
<path d="M88.7918 69.2135C88.4953 69.2117 88.207 69.1156 87.9687 68.9391L85.9844 67.497C85.8198 67.3769 85.6213 67.3122 85.4175 67.3122C85.2137 67.3122 85.0151 67.3769 84.8505 67.497L82.8662 68.9391C82.6268 69.1132 82.3385 69.2071 82.0425 69.2071C81.7465 69.2072 81.4581 69.1136 81.2187 68.9396C80.9792 68.7657 80.801 68.5203 80.7096 68.2388C80.6182 67.9573 80.6183 67.6541 80.7099 67.3727L81.468 65.0399C81.5313 64.8462 81.5316 64.6373 81.4686 64.4433C81.4057 64.2494 81.2828 64.0805 81.1177 63.9609L79.1334 62.5188C78.8938 62.345 78.7155 62.0998 78.6239 61.8184C78.5324 61.5369 78.5323 61.2338 78.6236 60.9523C78.715 60.6708 78.8932 60.4255 79.1326 60.2515C79.3721 60.0776 79.6604 59.9839 79.9564 59.9839H82.4099C82.6131 59.9836 82.8111 59.9189 82.9753 59.7991C83.1396 59.6794 83.2618 59.5107 83.3243 59.3173L84.0824 56.9846C84.1738 56.7032 84.3519 56.458 84.5913 56.2841C84.8306 56.1103 85.1189 56.0166 85.4147 56.0166C85.7105 56.0166 85.9988 56.1103 86.2381 56.2841C86.4775 56.458 86.6556 56.7032 86.747 56.9846L87.5051 59.3173C87.5677 59.5107 87.6898 59.6794 87.8541 59.7991C88.0184 59.9189 88.2163 59.9836 88.4196 59.9839H90.873C91.169 59.9839 91.4573 60.0776 91.6968 60.2515C91.9362 60.4255 92.1144 60.6708 92.2058 60.9523C92.2972 61.2338 92.2971 61.5369 92.2055 61.8184C92.1139 62.0998 91.9356 62.345 91.696 62.5188L89.7117 63.9609C89.5466 64.0805 89.4237 64.2494 89.3608 64.4433C89.2978 64.6373 89.2981 64.8462 89.3615 65.0399L90.1195 67.3727C90.2143 67.6538 90.216 67.958 90.1242 68.2402C90.0325 68.5224 89.8522 68.7675 89.6102 68.9391C89.3719 69.1156 89.0837 69.2117 88.7872 69.2135H88.7918Z" fill="#FFBF40"/>
<path d="M108.903 69.2135C108.606 69.2117 108.318 69.1156 108.08 68.9391L106.095 67.497C105.931 67.377 105.732 67.3123 105.528 67.3123C105.324 67.3123 105.125 67.377 104.961 67.497L102.976 68.9391C102.737 69.1132 102.449 69.2071 102.153 69.2071C101.857 69.2072 101.568 69.1136 101.329 68.9396C101.089 68.7657 100.911 68.5203 100.82 68.2388C100.728 67.9573 100.728 67.6541 100.82 67.3727L101.578 65.0399C101.641 64.8462 101.642 64.6373 101.579 64.4433C101.516 64.2494 101.393 64.0805 101.228 63.9609L99.2435 62.5188C99.004 62.345 98.8256 62.0998 98.734 61.8184C98.6425 61.5369 98.6424 61.2338 98.7338 60.9523C98.8251 60.6708 99.0033 60.4255 99.2427 60.2515C99.4822 60.0776 99.7705 59.9839 100.066 59.9839H102.52C102.723 59.9836 102.921 59.9189 103.085 59.7991C103.25 59.6794 103.372 59.5107 103.434 59.3173L104.192 56.9846C104.284 56.7032 104.462 56.458 104.701 56.2841C104.941 56.1103 105.229 56.0166 105.525 56.0166C105.821 56.0166 106.109 56.1103 106.348 56.2841C106.588 56.458 106.766 56.7032 106.857 56.9846L107.615 59.3173C107.678 59.5107 107.8 59.6794 107.964 59.7991C108.128 59.9189 108.326 59.9836 108.53 59.9839H110.983C111.279 59.9839 111.567 60.0776 111.807 60.2515C112.046 60.4255 112.224 60.6708 112.316 60.9523C112.407 61.2338 112.407 61.5369 112.316 61.8184C112.224 62.0998 112.046 62.345 111.806 62.5188L109.822 63.9609C109.657 64.0805 109.534 64.2494 109.471 64.4433C109.408 64.6373 109.408 64.8462 109.472 65.0399L110.23 67.3727C110.324 67.6538 110.326 67.958 110.234 68.2402C110.143 68.5224 109.962 68.7675 109.72 68.9391C109.484 69.1144 109.197 69.2105 108.903 69.2135Z" fill="#FFBF40"/>
<path d="M142.375 69.3524C142.05 69.3512 141.733 69.2464 141.471 69.0534C141.205 68.8648 141.007 68.5955 140.906 68.2855C140.805 67.9755 140.807 67.6413 140.911 67.3324L141.669 64.9996C141.724 64.8336 141.724 64.6544 141.67 64.4882C141.616 64.322 141.51 64.1773 141.368 64.0751L139.384 62.633C139.121 62.4419 138.926 62.1726 138.826 61.8637C138.725 61.5547 138.725 61.2219 138.826 60.9129C138.926 60.604 139.122 60.3347 139.384 60.1437C139.647 59.9527 139.964 59.8497 140.289 59.8495H142.742C142.917 59.8501 143.087 59.795 143.229 59.6922C143.37 59.5895 143.475 59.4444 143.528 59.2779L144.287 56.9452C144.387 56.6365 144.583 56.3676 144.846 56.1769C145.109 55.9862 145.425 55.8835 145.75 55.8835C146.074 55.8835 146.391 55.9862 146.653 56.1769C146.916 56.3676 147.112 56.6365 147.213 56.9452L147.971 59.2779C148.024 59.4444 148.129 59.5895 148.271 59.6922C148.412 59.795 148.582 59.8501 148.757 59.8495H151.211C151.535 59.8497 151.852 59.9527 152.115 60.1437C152.377 60.3347 152.573 60.604 152.673 60.9129C152.774 61.2219 152.774 61.5547 152.674 61.8637C152.573 62.1726 152.378 62.4419 152.115 62.633L150.131 64.0751C149.989 64.1773 149.883 64.322 149.829 64.4882C149.775 64.6544 149.775 64.8336 149.83 64.9996L150.588 67.3324C150.689 67.6415 150.689 67.9745 150.588 68.2837C150.488 68.5929 150.292 68.8624 150.029 69.0535C149.766 69.2446 149.449 69.3475 149.124 69.3475C148.799 69.3475 148.482 69.2445 148.22 69.0534L146.235 67.6113C146.094 67.5081 145.924 67.4524 145.749 67.4524C145.574 67.4524 145.404 67.5081 145.263 67.6113L143.279 69.0534C143.017 69.2463 142.701 69.351 142.375 69.3524ZM145.75 66.7407C146.076 66.7407 146.392 66.8438 146.655 67.0352L148.64 68.4772C148.781 68.5829 148.952 68.6407 149.128 68.6421C149.304 68.6436 149.476 68.5885 149.618 68.4851C149.76 68.3817 149.866 68.2353 149.919 68.0675C149.972 67.8997 149.97 67.7193 149.913 67.5528L149.155 65.22C149.054 64.911 149.054 64.5777 149.154 64.2685C149.254 63.9592 149.45 63.6897 149.714 63.499L151.698 62.0569C151.842 61.9557 151.95 61.811 152.005 61.644C152.061 61.477 152.062 61.2967 152.007 61.1293C151.953 60.9619 151.846 60.8165 151.703 60.7142C151.56 60.6119 151.388 60.5581 151.212 60.5609H148.758C148.433 60.5614 148.116 60.4586 147.853 60.2675C147.59 60.0764 147.395 59.8067 147.295 59.4974L146.537 57.1647C146.485 56.9962 146.381 56.8488 146.239 56.7441C146.098 56.6393 145.926 56.5828 145.75 56.5828C145.574 56.5828 145.402 56.6393 145.261 56.7441C145.119 56.8488 145.015 56.9962 144.963 57.1647L144.205 59.4974C144.105 59.8068 143.91 60.0765 143.647 60.2677C143.384 60.4588 143.067 60.5615 142.742 60.5609H140.289C140.113 60.5581 139.94 60.6119 139.797 60.7142C139.654 60.8165 139.547 60.9619 139.493 61.1293C139.439 61.2967 139.439 61.477 139.495 61.644C139.55 61.811 139.658 61.9557 139.802 62.0569L141.786 63.499C142.05 63.6897 142.246 63.9592 142.346 64.2685C142.447 64.5777 142.446 64.911 142.345 65.22L141.587 67.5528C141.53 67.7193 141.528 67.8997 141.581 68.0675C141.634 68.2353 141.74 68.3817 141.882 68.4851C142.024 68.5885 142.196 68.6436 142.372 68.6421C142.548 68.6407 142.719 68.5829 142.86 68.4772L144.844 67.0352C145.107 66.8438 145.424 66.7407 145.749 66.7407H145.75Z" fill="#FFB41E"/>
<path d="M122.088 69.2948C121.763 69.2936 121.446 69.1889 121.184 68.9958C120.918 68.8072 120.72 68.5379 120.619 68.2279C120.518 67.9179 120.52 67.5837 120.624 67.2748L121.382 64.942C121.437 64.7759 121.437 64.5968 121.383 64.4306C121.329 64.2644 121.223 64.1197 121.081 64.0175L119.097 62.5754C118.834 62.3843 118.639 62.115 118.539 61.806C118.438 61.4971 118.438 61.1643 118.539 60.8553C118.639 60.5464 118.835 60.2771 119.097 60.0861C119.36 59.895 119.677 59.7921 120.001 59.7919H122.455C122.63 59.7925 122.8 59.7374 122.942 59.6346C123.083 59.5319 123.188 59.3868 123.241 59.2204L123.999 56.8876C124.1 56.5789 124.296 56.31 124.559 56.1193C124.821 55.9286 125.138 55.8259 125.462 55.8259C125.787 55.8259 126.104 55.9286 126.366 56.1193C126.629 56.31 126.825 56.5789 126.926 56.8876L127.684 59.2204C127.737 59.3868 127.842 59.5319 127.983 59.6346C128.125 59.7374 128.295 59.7925 128.47 59.7919H130.924C131.248 59.7921 131.565 59.895 131.828 60.0861C132.09 60.2771 132.286 60.5464 132.386 60.8553C132.487 61.1643 132.487 61.4971 132.386 61.806C132.286 62.115 132.091 62.3843 131.828 62.5754L129.844 64.0175C129.702 64.1197 129.596 64.2644 129.542 64.4306C129.488 64.5968 129.488 64.7759 129.543 64.942L130.301 67.2748C130.401 67.5839 130.402 67.917 130.301 68.2262C130.201 68.5354 130.005 68.8048 129.742 68.9959C129.479 69.187 129.162 69.2899 128.837 69.2899C128.512 69.2899 128.195 69.1869 127.932 68.9958L125.948 67.5537C125.807 67.4505 125.637 67.3948 125.462 67.3948C125.287 67.3948 125.117 67.4505 124.976 67.5537L122.992 68.9958C122.73 69.1889 122.414 69.2936 122.088 69.2948ZM125.463 66.6831C125.788 66.6831 126.105 66.7862 126.368 66.9776L128.353 68.4197C128.494 68.5254 128.665 68.5831 128.841 68.5845C129.017 68.5859 129.189 68.5309 129.331 68.4275C129.473 68.324 129.579 68.1777 129.632 68.0099C129.685 67.8421 129.683 67.6617 129.626 67.4951L128.868 65.1624C128.767 64.8532 128.767 64.52 128.867 64.2107C128.968 63.9014 129.164 63.632 129.428 63.4414L131.412 61.9993C131.556 61.8981 131.664 61.7534 131.719 61.5864C131.775 61.4195 131.775 61.2391 131.721 61.0717C131.667 60.9043 131.56 60.7588 131.417 60.6565C131.274 60.5542 131.101 60.5005 130.925 60.5033H128.472C128.147 60.5039 127.83 60.4012 127.567 60.2101C127.304 60.0189 127.109 59.7492 127.009 59.4398L126.251 57.1071C126.199 56.9386 126.095 56.7912 125.953 56.6865C125.812 56.5817 125.64 56.5252 125.464 56.5252C125.288 56.5252 125.116 56.5817 124.975 56.6865C124.833 56.7912 124.729 56.9386 124.677 57.1071L123.919 59.4398C123.819 59.7492 123.624 60.0189 123.361 60.2101C123.098 60.4012 122.781 60.5039 122.456 60.5033H120.002C119.826 60.5005 119.654 60.5542 119.511 60.6565C119.368 60.7588 119.261 60.9043 119.207 61.0717C119.152 61.2391 119.153 61.4195 119.209 61.5864C119.264 61.7534 119.372 61.8981 119.516 61.9993L121.5 63.4414C121.764 63.6321 121.96 63.9016 122.06 64.2109C122.16 64.5202 122.16 64.8533 122.059 65.1624L121.301 67.4951C121.244 67.6617 121.242 67.8421 121.295 68.0099C121.348 68.1777 121.454 68.324 121.596 68.4275C121.738 68.5309 121.91 68.5859 122.086 68.5845C122.262 68.5831 122.433 68.5254 122.574 68.4197L124.558 66.9776C124.821 66.7862 125.138 66.6831 125.463 66.6831Z" fill="#FFB41E"/>
<path d="M19.5745 10.6771C18.9609 10.6771 18.3725 10.9209 17.9386 11.3547C17.5047 11.7886 17.261 12.3771 17.261 12.9907C17.261 13.6043 17.5047 14.1927 17.9386 14.6266C18.3725 15.0605 18.9609 15.3042 19.5745 15.3042H136.665C137.279 15.3042 137.868 15.0605 138.301 14.6266C138.735 14.1927 138.979 13.6043 138.979 12.9907C138.979 12.3771 138.735 11.7886 138.301 11.3547C137.868 10.9209 137.279 10.6771 136.665 10.6771H19.5745Z" fill="#CCCCCC"/>
<path d="M19.5745 22.7778C18.9609 22.7778 18.3725 23.0216 17.9386 23.4554C17.5047 23.8893 17.261 24.4778 17.261 25.0914C17.261 25.705 17.5047 26.2934 17.9386 26.7273C18.3725 27.1612 18.9609 27.4049 19.5745 27.4049H136.665C137.279 27.4049 137.868 27.1612 138.301 26.7273C138.735 26.2934 138.979 25.705 138.979 25.0914C138.979 24.4778 138.735 23.8893 138.301 23.4554C137.868 23.0216 137.279 22.7778 136.665 22.7778H19.5745Z" fill="#CCCCCC"/>
<path d="M19.5745 34.8779C18.9609 34.8779 18.3725 35.1217 17.9386 35.5556C17.5047 35.9894 17.261 36.5779 17.261 37.1915C17.261 37.8051 17.5047 38.3935 17.9386 38.8274C18.3725 39.2613 18.9609 39.505 19.5745 39.505H136.665C137.279 39.505 137.868 39.2613 138.301 38.8274C138.735 38.3935 138.979 37.8051 138.979 37.1915C138.979 36.5779 138.735 35.9894 138.301 35.5556C137.868 35.1217 137.279 34.8779 136.665 34.8779H19.5745Z" fill="#CCCCCC"/>
<path d="M19.5745 10.6771C18.9609 10.6771 18.3725 10.9209 17.9386 11.3547C17.5047 11.7886 17.261 12.3771 17.261 12.9907C17.261 13.6043 17.5047 14.1927 17.9386 14.6266C18.3725 15.0605 18.9609 15.3042 19.5745 15.3042H136.665C137.279 15.3042 137.868 15.0605 138.301 14.6266C138.735 14.1927 138.979 13.6043 138.979 12.9907C138.979 12.3771 138.735 11.7886 138.301 11.3547C137.868 10.9209 137.279 10.6771 136.665 10.6771H19.5745Z" fill="#CCCCCC"/>
<path d="M19.5745 22.7778C18.9609 22.7778 18.3725 23.0216 17.9386 23.4554C17.5047 23.8893 17.261 24.4778 17.261 25.0914C17.261 25.705 17.5047 26.2934 17.9386 26.7273C18.3725 27.1612 18.9609 27.4049 19.5745 27.4049H136.665C137.279 27.4049 137.868 27.1612 138.301 26.7273C138.735 26.2934 138.979 25.705 138.979 25.0914C138.979 24.4778 138.735 23.8893 138.301 23.4554C137.868 23.0216 137.279 22.7778 136.665 22.7778H19.5745Z" fill="#CCCCCC"/>
<path d="M19.5745 34.8779C18.9609 34.8779 18.3725 35.1217 17.9386 35.5556C17.5047 35.9894 17.261 36.5779 17.261 37.1915C17.261 37.8051 17.5047 38.3935 17.9386 38.8274C18.3725 39.2613 18.9609 39.505 19.5745 39.505H136.665C137.279 39.505 137.868 39.2613 138.301 38.8274C138.735 38.3935 138.979 37.8051 138.979 37.1915C138.979 36.5779 138.735 35.9894 138.301 35.5556C137.868 35.1217 137.279 34.8779 136.665 34.8779H19.5745Z" fill="#CCCCCC"/>
</svg>
