<svg width="12" height="11" viewBox="0 0 12 11" fill="none" xmlns="http://www.w3.org/2000/svg">
<path d="M11.2536 5.31855C11.4425 5.1391 11.5765 4.90961 11.6399 4.65686C11.7034 4.4041 11.6936 4.13852 11.6118 3.89111C11.5278 3.6422 11.376 3.42165 11.1736 3.25425C10.9711 3.08686 10.726 2.97925 10.4658 2.94351L8.6935 2.69385C8.61141 2.68222 8.53338 2.6508 8.46614 2.60229C8.39889 2.55379 8.34444 2.48965 8.30749 2.41541L7.51506 0.837624C7.39469 0.603655 7.2122 0.40738 6.98761 0.270345C6.76303 0.13331 6.50505 0.0608139 6.24197 0.0608139C5.9789 0.0608139 5.72091 0.13331 5.49633 0.270345C5.27175 0.40738 5.08926 0.603655 4.96888 0.837624L4.17645 2.41541C4.1395 2.48965 4.08506 2.55379 4.01781 2.60229C3.95057 2.6508 3.87253 2.68222 3.79044 2.69385L2.01814 2.94629C1.75808 2.98164 1.51301 3.08876 1.31043 3.25565C1.10785 3.42254 0.955766 3.64259 0.871248 3.89111C0.78935 4.13873 0.779629 4.40456 0.843221 4.6575C0.906813 4.91045 1.04109 5.14005 1.23035 5.31948L2.51272 6.54458C2.57132 6.60119 2.61509 6.67136 2.64018 6.74889C2.66526 6.82642 2.67088 6.90893 2.65654 6.98915L2.35404 8.71915C2.30999 8.97618 2.3397 9.24043 2.43972 9.48125C2.53974 9.72208 2.70598 9.9296 2.91914 10.0798C3.13473 10.2326 3.38815 10.3233 3.65176 10.342C3.91537 10.3607 4.17903 10.3065 4.414 10.1856L6.00072 9.3679C6.07442 9.32973 6.1562 9.30982 6.23919 9.30982C6.32218 9.30982 6.40396 9.32973 6.47766 9.3679L8.06438 10.1856C8.29917 10.3078 8.5632 10.3625 8.82721 10.3439C9.09122 10.3252 9.34491 10.2338 9.56017 10.0798C9.77416 9.93019 9.94096 9.72257 10.0409 9.48134C10.1409 9.24012 10.1698 8.97535 10.1243 8.71822C9.79493 6.82673 9.8506 6.6606 11.2536 5.31855Z" fill="#F2C225"/>
</svg>
