<svg width="20" height="19" viewBox="0 0 20 19" fill="none" xmlns="http://www.w3.org/2000/svg">
<path d="M18.5464 8.62929L2.1866 0.613009C2.01338 0.520706 1.81534 0.482235 1.61904 0.502757C1.42274 0.523279 1.23757 0.601812 1.08838 0.727822C0.939187 0.853832 0.833104 1.02129 0.784359 1.20774C0.735615 1.39418 0.746541 1.5907 0.815672 1.77092L3.10056 7.73859L13.5196 9.43092L3.10056 11.1232L0.815672 17.0909C0.7489 17.2685 0.741062 17.462 0.793266 17.6441C0.845471 17.8263 0.955078 17.9878 1.1066 18.106C1.25813 18.2241 1.44391 18.2928 1.63771 18.3025C1.8315 18.3121 2.02351 18.2622 2.1866 18.1598L18.5464 10.1435C18.6907 10.0733 18.8122 9.96521 18.897 9.83149C18.9819 9.69776 19.0269 9.54362 19.0269 9.38638C19.0269 9.22914 18.9819 9.07501 18.897 8.94128C18.8122 8.80755 18.6907 8.69951 18.5464 8.62929Z" fill="#5B5F97"/>
</svg>
