<svg width="16" height="17" viewBox="0 0 16 17" fill="none" xmlns="http://www.w3.org/2000/svg">
<path d="M14.1449 9.64469L13.3876 9.2038C13.2 9.08756 13.0452 8.92536 12.9378 8.73255C12.8305 8.53974 12.7741 8.32272 12.7741 8.10204C12.7741 7.88136 12.8305 7.66434 12.9378 7.47153C13.0452 7.27872 13.2 7.11651 13.3876 7.00027L14.1431 6.55939C14.2885 6.48135 14.4161 6.3741 14.518 6.24437C14.6199 6.11464 14.6939 5.96524 14.7353 5.80555C14.7767 5.64586 14.7846 5.47934 14.7586 5.31644C14.7326 5.15353 14.6731 4.99778 14.584 4.85895L13.9547 3.78874C13.8767 3.6434 13.7694 3.51576 13.6397 3.41385C13.5099 3.31194 13.3605 3.23796 13.2009 3.19655C13.0412 3.15515 12.8746 3.14722 12.7117 3.17325C12.5488 3.19929 12.3931 3.25874 12.2543 3.34785L11.4987 3.78874C11.3089 3.89921 11.0934 3.95801 10.8738 3.95928C10.6542 3.96055 10.4381 3.90425 10.247 3.79598C10.0559 3.68772 9.89652 3.53127 9.78473 3.34223C9.67294 3.15318 9.61264 2.93814 9.60984 2.71854V1.83767C9.60888 1.50502 9.47675 1.18617 9.24213 0.950349C9.00751 0.714528 8.68933 0.580773 8.35669 0.578125L7.09348 0.578125C6.75972 0.57909 6.43991 0.712103 6.20391 0.948105C5.96791 1.18411 5.8349 1.50392 5.83393 1.83767V2.65634C5.83113 2.87594 5.77083 3.09098 5.65903 3.28003C5.54724 3.46907 5.38787 3.62552 5.19678 3.73378C5.0057 3.84205 4.78958 3.89835 4.56996 3.89708C4.35034 3.89581 4.13488 3.83701 3.94506 3.72654L3.18952 3.34877C3.04968 3.26322 2.89405 3.20669 2.73191 3.18257C2.56976 3.15845 2.40442 3.16722 2.24574 3.20836C2.08705 3.24951 1.93828 3.32218 1.80828 3.42205C1.67828 3.52192 1.56972 3.64694 1.48908 3.78966L0.856101 4.85986C0.702012 5.15689 0.661781 5.5 0.742978 5.82462C0.824175 6.14924 1.0212 6.43299 1.29699 6.6225L2.05254 7.06339C2.23924 7.17277 2.39409 7.3291 2.50169 7.51684C2.60929 7.70458 2.6659 7.91721 2.6659 8.1336C2.6659 8.34999 2.60929 8.56261 2.50169 8.75035C2.39409 8.93809 2.23924 9.09442 2.05254 9.2038L1.29699 9.64469C1.15164 9.72272 1.02401 9.82998 0.922095 9.9597C0.820185 10.0894 0.746203 10.2388 0.704799 10.3985C0.663395 10.5582 0.655463 10.7247 0.6815 10.8876C0.707538 11.0505 0.766983 11.2063 0.856101 11.3451L1.48542 12.4153C1.56345 12.5607 1.6707 12.6883 1.80043 12.7902C1.93016 12.8921 2.07956 12.9661 2.23925 13.0075C2.39894 13.0489 2.56547 13.0569 2.72837 13.0308C2.89127 13.0048 3.04703 12.9453 3.18586 12.8562L3.9414 12.4784C4.13122 12.368 4.34668 12.3092 4.5663 12.3079C4.78592 12.3066 5.00204 12.3629 5.19312 12.4712C5.38421 12.5795 5.54358 12.7359 5.65538 12.925C5.76717 13.114 5.82747 13.329 5.83027 13.5487V14.4304C5.83148 14.7647 5.9651 15.0848 6.20187 15.3207C6.43864 15.5566 6.75925 15.6891 7.09348 15.6891H8.35669C8.69044 15.6881 9.01026 15.5551 9.24626 15.3191C9.48226 15.0831 9.61527 14.7633 9.61624 14.4295V13.6109C9.61904 13.3912 9.67934 13.1762 9.79113 12.9872C9.90293 12.7981 10.0623 12.6417 10.2534 12.5334C10.4445 12.4251 10.6606 12.3688 10.8802 12.3701C11.0998 12.3714 11.3153 12.4302 11.5051 12.5406L12.2607 12.9815C12.4005 13.0671 12.5561 13.1236 12.7183 13.1477C12.8804 13.1719 13.0458 13.1631 13.2044 13.1219C13.3631 13.0808 13.5119 13.0081 13.6419 12.9083C13.7719 12.8084 13.8804 12.6834 13.9611 12.5406L14.5904 11.4704C14.7477 11.1633 14.7893 10.8099 14.7075 10.4747C14.6257 10.1394 14.426 9.84483 14.1449 9.64469ZM7.7228 10.6509C7.22471 10.6509 6.73781 10.5032 6.32367 10.2264C5.90954 9.94967 5.58678 9.55633 5.39621 9.09614C5.20564 8.63595 5.15583 8.12958 5.25307 7.64107C5.3503 7.15257 5.59023 6.70387 5.9425 6.35173C6.29476 5.99959 6.74354 5.75983 7.23209 5.66277C7.72063 5.56571 8.22698 5.61571 8.6871 5.80644C9.14722 5.99718 9.54045 6.32008 9.81704 6.73432C10.0936 7.14855 10.2412 7.63551 10.241 8.1336C10.2391 8.80095 9.97316 9.44044 9.50135 9.91241C9.02954 10.3844 8.39015 10.6505 7.7228 10.6527V10.6509Z" fill="#5B5F97" stroke="#EBEBEB" stroke-width="0.914706"/>
</svg>
