<svg width="19" height="19" viewBox="0 0 19 19" fill="none" xmlns="http://www.w3.org/2000/svg">
<path d="M9.29403 18.9264C11.1031 18.9264 12.8716 18.39 14.3759 17.3849C15.8801 16.3798 17.0525 14.9512 17.7448 13.2798C18.4371 11.6084 18.6183 9.76924 18.2653 7.99488C17.9124 6.22053 17.0412 4.59068 15.762 3.31144C14.4827 2.0322 12.8529 1.16103 11.0785 0.808087C9.30418 0.455145 7.46501 0.636287 5.7936 1.32861C4.1222 2.02093 2.69362 3.19333 1.68853 4.69755C0.683438 6.20178 0.146973 7.97027 0.146973 9.77939C0.146973 12.2053 1.11068 14.5319 2.82608 16.2473C3.67547 17.0967 4.68383 17.7705 5.7936 18.2302C6.90338 18.6898 8.09282 18.9264 9.29403 18.9264ZM9.29403 17.5544V2.00439C11.3561 2.00439 13.3337 2.82354 14.7918 4.28163C16.2499 5.73973 17.069 7.71733 17.069 9.77939C17.069 11.8414 16.2499 13.819 14.7918 15.2771C13.3337 16.7352 11.3561 17.5544 9.29403 17.5544Z" fill="#5B5F97"/>
</svg>
